<?xml version="1.0" encoding="UTF-8"?>
<svg id="Layer_1" xmlns="http://www.w3.org/2000/svg" version="1.1" viewBox="0 0 786.5 312.2">
  <!-- Generator: Adobe Illustrator 29.7.1, SVG Export Plug-In . SVG Version: 2.1.1 Build 8)  -->
  <defs>
    <style>
      .st0 {
        fill: none;
        stroke: #6d6e71;
        stroke-miterlimit: 10;
        stroke-width: 6px;
      }

      .st1 {
        fill: #858585;
      }
    </style>
  </defs>
  <g>
    <path class="st1" d="M325.8,183.2c-22.2,0-40.2,18.1-40.2,40.4s18.1,40.3,40.2,40.3,40.1-18,40.1-40.3-18-40.4-40.1-40.4h0ZM325.8,252.6c-16-.1-28.9-13.2-28.9-29.1s12.9-29.2,28.9-29.2,29.1,13,29.1,29.2-13.1,29.1-29.1,29.1Z"/>
    <polygon class="st1" points="260.9 236.9 205.2 184.3 205.2 262.7 216.3 262.7 216.3 210.6 272.2 262.7 272.2 184.3 260.9 184.3 260.9 236.9"/>
    <path class="st1" d="M153,184.3h-28v78.4h28c22.2,0,38.9-17.6,39-39.2,0-21.6-17.4-39.3-39-39.3h0ZM153,251.5h-16.9v-56.1h16.9c15.4,0,27.9,12.6,27.9,28.1s-12.5,28-27.9,28Z"/>
    <path class="st1" d="M418.3,252.6c-15.4,0-29-13-29-29.1s13.7-29.2,29-29.2,14.5,2.9,19.6,8l5.6-9.8c-6.7-6-15.5-9.3-25.2-9.3-22.5,0-40.2,18.1-40.2,40.3s18.1,40.2,40.1,40.2,18.7-3.5,25.6-9.3l-5.6-9.8c-5.1,5.1-12.2,8-19.8,8h-.1Z"/>
    <path class="st1" d="M74,184.1l-39.1,78.6h12.3l26.8-55.2,13.3,27.5h-23.2l-.3.5h.4c15.3,1.1,28.3,10.3,34.7,23.4l1.8,3.7h12.3l-39-78.6h0Z"/>
    <rect class="st1" x="426.4" y="66.9" width="11.2" height="78.4"/>
    <path class="st1" d="M432.2,47.5c-1.6-1-2.4-2.7-2.4-5s1.8-5.1,4.6-5.1,3.4,1,3.8,3l4.9-2.6c-1.9-3.9-4.7-6-8.5-6-5.8,0-10.5,4.6-10.5,10.9s.4,2.2,1.2,4.7h-5.4v6.2h23.4v-6.2h-11.1Z"/>
    <path class="st1" d="M34.9,111.8v.5c0,18.2,15.8,33.1,34.1,33.1h54.4v-78.4h-11.2v67.4h-43.4c-12.2,0-23-9.8-23-22.1s0-.3,0-.5c0,0-10.9,0-10.9,0Z"/>
    <path class="st1" d="M353.5,134.2v11.1h59.8v-23c0-18.2-14.3-31.9-31.9-32-4.8,0-9.4,1.1-13.5,3l5.6,9.9c2.4-1,5.1-1.6,7.9-1.6,11,0,20.1,9,20.1,20.2v12.4h-48Z"/>
    <path class="st1" d="M68.5,104.6h23.4v-6.2h-10.9c-1.6-1-2.4-2.7-2.4-5s1.8-5.1,4.6-5.1,3.4,1,3.8,3l4.9-2.6c-1.9-3.9-4.7-6-8.5-6-5.8,0-10.5,4.6-10.5,10.9s.4,2.2,1.2,4.7h-5.4v6.2h-.2Z"/>
    <rect class="st1" x="329.2" y="75.5" width="11.2" height="11.2"/>
    <path class="st1" d="M165.5,163.6h0l7.5,6.8c4.9-5.5,7.9-12.8,7.9-20.7v-4.4h142.7c11.1,0,16.7-6,16.7-18.1v-34.2h-11.1v30c0,3.6-.3,6.6-.8,7.8-1.1,2.2-3.4,3.3-7.1,3.3h-139.5v-41.1h-19.5c-14.8,0-25.9,11.7-26,26.1,0,14.4,11.6,26.2,26,26.2h8.4v5.2c0,4.5-1.9,9.3-5.1,13h0ZM170.5,134.3h-9c-8.3,0-14.9-6.8-14.9-15s6.7-15,14.9-15h9v30h0Z"/>
    <g>
      <path class="st1" d="M684.5,224.9c-3.6,14.9-10.8,27.8-21.2,38.2h56.9c10.8-58.9-28-121.9-91.6-135.5,13,3.6,68.7,29.7,55.9,97.3h0Z"/>
      <path class="st1" d="M489.6,32.5v230.6h24.6c14.9,0,18.4.3,26.5-1,35.2-5.1,67.3-33.8,70.8-59,5.2-30-11.1-56.2-42.4-62.7-.6-.1-1.2-.3-1.8-.5-1.1,0-16.4.2-28.1-3,0,.1-6.8,5.3-4,15.4,0,0-15.7-16.3-5.7-38.3,0,0,4.8-10.4,21.2-21,0-.2.2-.3.4-.5,4.4-5.2,14.9-14.4,30.1-21.6,7.8-3.5,21.1-8.5,36.1-9.8,68.2-6.3,102.9,45.8,102.9,45.8V32.5h-230.6Z"/>
      <path class="st1" d="M657.1,87c-33-4.4-60.8,4.1-82.6,19.4,0,0,6.4-3.7,16.4-7.2,1.5,6.3,6.8,11.7,14,13.2,9.6,2,19-3.6,20.8-12.6.5-2.4.4-4.9-.2-7.2,63-1.9,94.8,46.2,94.8,46.2v-20.7c-9.6-9.7-33.5-27.7-63.1-31h-.1Z"/>
    </g>
  </g>
  <rect class="st0" x="-1641.7" y="-631.7" width="5385.8" height="1559.1"/>
</svg>