<?xml version="1.0" encoding="UTF-8"?>
<svg id="Layer_1" xmlns="http://www.w3.org/2000/svg" version="1.1" viewBox="0 0 2500 2500">
  <!-- Generator: Adobe Illustrator 29.7.1, SVG Export Plug-In . SVG Version: 2.1.1 Build 8)  -->
  <defs>
    <style>
      .st0 {
        fill: #b01842;
      }

      .st0, .st1, .st2 {
        fill-rule: evenodd;
      }

      .st1 {
        fill: #898576;
      }
    </style>
  </defs>
  <path class="st2" d="M995.7,148.1c3.1-1-3.1,1,0,0ZM995.7,148.1c.6-.2-.5.2,0,0Z"/>
  <path class="st1" d="M1275.9,1640.9c-.5-32.2,31-48.6,50.9-69.9,5.4-5.2,7.3-15.4,3.5-23.9-2.4-5.3-5.8-7.9-10.2-9-7-1.6-12.9-.6-17.3,3.3-6.2,5.7-7.9,13.2-7.6,21.2l-22,1.3c-1.9-12.2,1.1-24.1,8.6-33.3,10.3-11,25.7-14.1,40.8-13.1,12.1,2,26.1,9.3,31.1,21.8,6.4,13.7,4.2,31.1-5.9,42.7-13,13.9-30.1,21.4-40.9,37l55.8-3.2c.5,6.9.8,13.6,1.2,19.9l-88,5.2h0Z"/>
  <path class="st1" d="M1078,1501.5l-.4,1.1-36.3,111.4-23.2-7.6,25-76.3.3-1.3c-9.2-3.2-20.3-6.4-29.4-9.6l4.7-14.4c11.7,3,23.8,5,34-3.4,3.7-2.9,4.4-3.7,6.4-5.9l18.9,6.1h0Z"/>
  <polygon class="st1" points="1742.8 474.9 1634.4 521.6 1624.7 499 1733.1 452.3 1742.9 474.9 1742.8 474.9"/>
  <path class="st1" d="M1334.2,287.5l-27.9-121.5,25.6,2.6c5.2,30.1,10.5,64.2,16.6,89.5,11.1-23.6,23.1-56,34.2-84.3l25.3,2.5-51.3,113.4-22.5-2.3h0Z"/>
  <polygon class="st1" points="873 357.1 846.7 404.2 824.5 391.8 854.7 337.7 837.7 328.2 795.4 403.9 898.5 461.5 940.7 385.8 923.6 376.3 893.4 430.5 864.5 414.4 890.9 367.1 872.9 357.2 873 357.1"/>
  <polygon class="st1" points="1743.7 540.5 1762.5 535.7 1786.3 628 1767.5 632.8 1758.7 598.6 1663.9 623 1657.8 599.2 1752.5 574.8 1743.7 540.5 1743.7 540.5"/>
  <path class="st1" d="M1147.7,294.3c-13.1,2.2-26.6.9-37.5-5.7-9.3-5.5-12.7-12.5-14.4-21.1l-13.6-84.3,24-3.9,13.6,84.3c1.3,6.9,7.5,11.2,13.9,12.4,3.5.9,7.4.9,11.3.1l2.7,18.1h0Z"/>
  <path class="st1" d="M1148,294.2c13.1-2,25.5-7.4,33.8-17.2,7.2-8.1,8.2-15.8,7.2-24.6l-13.6-84.3-24,3.9,13.5,84.3c.9,6.4-3.6,13-9.3,16.2-3.2,2-6.9,3.2-10.6,3.6l3,18.1h0Z"/>
  <path class="st1" d="M1780.5,910.6l2.2-.4,2.8-.7,1.9-.6c7.8-4.3,9.7-14.6,9.2-23.1-.3-8.5-3-17.2-10.9-20.3-4.1-1.2-9.4-1.5-12.2,2.8-13.3,19.7-4.1,61.5-38.4,68.8-14.9,2.5-28.1-4-35.9-16-10.6-19-11.5-48.7.7-67.2,7.4-9.6,17.4-15.5,29.3-15.6l1.5,22.6c-7.4,1-14.7,4.7-18,11.9-5,11.8-3.8,30.7,4.9,37.6,3.2,3.5,10.5,3.1,14.5,1,13.6-9.8,10.8-34.2,17.7-50.6,2.4-6.9,8.7-14,15.2-17.5,12.1-5.2,27.6-3.3,37.3,6.3,15.7,14.8,16.4,43.8,9.1,61.5-4.1,12.2-17.4,21.2-31.1,22l-1.4-22.6h1.7,0Z"/>
  <path class="st1" d="M830.5,732.5c-2,13.1-7.4,25.6-17.1,33.9-8.1,7.2-15.8,8.2-24.5,7.2l-84.4-13.2,3.8-24.1,84.3,13.2c7.1.8,13-3.6,16.2-9.3,2-3.1,3.2-6.8,3.6-10.7l18.1,3h0Z"/>
  <path class="st1" d="M830.5,732.3c2.1-13.1.8-26.6-5.9-37.5-5.4-9.3-12.5-12.7-21.1-14.4l-84.4-13.2-3.8,24,84.4,13.3c6.3,1.1,11.2,7.5,12.4,13.8,1,3.6.9,7.5.2,11.3l18.1,2.7h0Z"/>
  <polygon class="st1" points="1534.3 266.3 1484.5 245.4 1494.3 221.9 1551.4 245.8 1559 227.8 1479 194.4 1433.4 303.3 1513.4 336.8 1520.9 318.7 1463.7 294.8 1476.5 264.3 1526.4 285.3 1534.2 266.4 1534.2 266.4 1534.3 266.3"/>
  <path class="st1" d="M1436.2,344c-56.7-15.3-118.2-23.9-179.8-23.9h-2c-60.7,0-121.1,8.1-179.7,23.9-60.4,17.2-110,58.8-134.9,115.5-54.1,116.2-89.7,283.3-89.7,447.6s35.6,331.5,89.7,447.6c24.9,56.7,74.5,98.3,134.9,115.5,56.7,15.3,118.1,23.9,179.7,23.9h2c60.7,0,121.2-8.1,179.8-23.9,60.3-17.2,109.9-58.8,134.8-115.5,54.2-116.1,89.8-283.3,89.8-447.6s-35.6-331.4-89.8-447.6c-24.9-56.7-74.5-98.3-134.8-115.5ZM1466.7,792.4c1.6.1,9.6-1.6,9.8-6.6v-103.7c14.3-3.3,28.6-8.2,42.2-11v62.6c8.1-.9,12.2-2,22.2-3.5v82.4l-25.8,3.9-7.9,33.3h0c0-.1-91.5-.1-91.5-.1l-13.6-29.7c-22.2-2.1-23.7-2.1-46-3.6,20.9-27,42.5-53.9,57-83.5v-42.2l41.2-5.3v100c0,3.5,5.1,7,10.2,7h2.2ZM1413.1,411.2c10.3-2.9,24.3-1.6,33,6.1,11.7,8.5,15,22.7,12.2,36-8.1,28.8-40.2,34.1-66.2,41.1l-14.3-19.5h0c5.3-24.8,8.1-53.3,35.4-63.7ZM1333,526.1h0l10.5,18.3h0l-26.1,28.6c-7.1-6.7-7.6-7.4-14.7-14.8,13.4-14,14.7-15.6,30.3-32.1ZM1009.3,486.9c4.7,13.6,13.4,23.4,26.9,29.7-1.5-7.2-7.9-13.8-10-21.5-5.9-14.8-5.3-36,4.3-49.1,6.9-10.2,16.8-14.4,27.6-17.9-4.1,12.3-5.4,27-.3,39.4,7-5.5,7.4-5.8,12.9-11.1,2.1-1.9,3.1-2.7,4.9-3.9,10,21.5,21.5,51.1,14.9,76.1l-4.2,10.8c-1.6-17.7-4.4-26.2-16.4-32.7-1.5,10.3,5.1,17.7,6.6,31.1,4.9,20.8,1,41.3-11.8,53.4h-33.2v.3c-25.2-27.1-27-67.8-22.2-104.6ZM1085.7,605v18.8h-17.6l-7.7,63.3c-7.4-6.7-16.2-11.7-25.8-14.8h0c-4.5-26.7-4.9-28.8-7.4-48.4h-17.1v-18.9h75.6ZM957.2,875.8h203.3v59h-203.3v-59ZM1035.9,757.2c8.5-2.3,16.6,3,23.2,7.9-1.1,34.3-1.1,33.9-1.8,69.8h-18.8l-.2-5.6h0c-.7-27.3-1.8-45.2-2.4-72.1ZM1057.5,1165.7c-11.9,8.3-22.8,9-34.4,9s-10.6-.5-14.5-1.7c-8.8-2.2-21.2-7-28.6-18.8l-1.6-2.9-1.3-3.5-1.6-3.9s-.6-5.8-.5-5.8v-110.5c-1-14-6.2-14.2-17.6-22.6l4.1-1.5,44.7-14.5c6.4,6.9,7.8,15.8,8.4,25v86.3c0,5.5,4.7,8.7,11.2,9.1,7.6,0,10.8-2.9,11.5-9,.6-38.7-.7-49.5,0-84.7,1-11.7,11.5-23.6,21.5-26.3,12.4-5.9,27.4-3.6,38.5,1.8v.2c19.8,9.5,18.8,48.5,18.6,80.1-7.8-5.2-9-5.8-16.8-7.9-6.8-1.6-14.3-.3-19.6,3.8-6.4,5.9-7.2,11.7-7.2,22-.5,36.7,3.6,61.9-14.8,76.3ZM1082.9,1294.3c-9.7-6.5-12-12.7-15.4-21.5h-.3c-8.2-37.7,37.1-51.2,47.8-82.3,8.5-52.1,11-107,47.2-147.6,3.6-76.7,28.4-144.4,82.8-200-2.6-17.2-9.7-32.2-14.8-48.3-7.2-.3-12-1.6-18.4-7.4-4.7-6.6-6.6-11.6-7.9-19.7-18.9,23.5-42.4,49.8-68.2,65.7-4.8,2.7-10.8-2.9-19.4-11-31.7-25-37-81.7-85.4-79.2-21.9-7.4-20.9-33.2-24.5-52.6,8.2-5.9,21.3-5.6,31.1-1.8,30.2,16.1,50.2,50.1,78.7,72.8,7.7,6.1,14.5,14.1,21.5,16.9,18.7-16.1,33.7-29.9,46.3-54.8,8.8-14,23.4-20.2,39.5-20.4l11.5-13.6-6.1-33.7c-11.6-14.8-21.4-30.8-29.4-47.8,4.1-19.4,6.7-41.9,26.3-52.6,12.8-7.9,23.2,10.2,33.7-1.3,7-1.6,14.2.2,19.7,4.9,8,13.8,17.4,27.6,17.9,43.7-4.8,15.6-12.3,30.1-19.6,44.7-1.7,3.3-6.2,4.3-9.2,6.6,1.8,6.6,3.4,14,7.9,19.2,5.9,1.3,11.4,2.3,18.4,1,5.7-17.1,24.1-24.8,39.4-29.3l33.7-22c-5.4-25.6,11-48,1.8-73.5-19.2-9-24.7-30.8-28.9-47.8,3.1-10.7,8.3-21.9,16-30.9l1.1,1.3c18.4,21.4,35.3,43.4,41.2,70,3.3,33.9,6.6,68.7,4.4,104.2-18.1,18.2-40.1,28.8-60.8,42.4l-15.3,29.4c-1.8,30.4-10.8,57.7-15.4,87.1,13.1,35.5,28.6,82.7,17.2,115.7-8.7,19.6-27.2,30.3-40.8,41.1l-34.6,27.6c34.7,38.2,26.3,81.4,27.8,136.8-.4,13.3,23.6,24.5,10.8,39.7-10.7,17.1-27.3,30.9-24.5,53.4-10.6,17.8-36,21.6-48,21.5-2.4.2-4.4-1.6-4.6-4v-.4c2.5-9.2,9.7-16.3,13.5-25,12.3-18.9,6.7-45,22-62.6-12.6-41.1-31.7-79.2-36.8-123.1l-.4-2.7c-10.3,20.1-4.6,39.9.8,55.8-34,42.9-70.8,84.1-70.8,140.5-14.6,25.8-35.3,49.4-46,76.6-3.6,4.6-10.4.6-14.5-1.7ZM1304,1176.5c4.9-6.7,5.6-10.7,4.2-17.9,19.9.8,40.1,17.4,47.7,36,7.9,18.9,4.9,43.6-7.4,59.5-15.3,18.7-36.5,28.4-61.3,24-15.6-3.6-30.9-13-39.9-27.6h0c12.7-4.3,30.8-11.6,34.5-24-1-19.2,12.3-34.7,22.2-50ZM1327.1,1141.4l.2-174.3h0c24.9-.4,32.9.3,58.8-.2v174.5h-59ZM1200.4,1407.5c-16.1,11.7-42.9,14.3-60.8,4.3-10.2-4.8-19.5-14.9-25-24.5h0c-4.3-9.4-6-12.7-6.4-22.3h116.3c-.3,16.1-9.5,31.9-24,42.5ZM1280,1411.9h-40v-71.8h0s-62.3,0-62.3,0v-28.8h62.5l19.7-23.3c9.6,11.2,10.3,12,20.3,23.3h62.5v28.9h-62.6v71.7ZM1405.2,1387.3c-5.6,9.6-14.8,19.7-25,24.5-17.9,10-44.7,7.4-60.8-4.3-14.5-10.6-23.7-26.4-24-42.5h116.2c-.5,9.6-2,12.9-6.4,22.3h0ZM1477.4,1250.9l-14.9-17.9v-49.7c-20.9,10.2-15.9,39.9-15.9,65.7-12.4-10.1-18.6-15.9-30.6-27.1-6.7-29.7,11.2-46.6,24.6-67.4l52.6,50.3v29.4h0c-6.2,7-8.5,9.6-15.8,16.7ZM1414.8,991.2c9.4-7.4,17.2-13.9,28.6-22.8-.9,22.6-4,45.6,6.9,59.1,26.7,26.5,50.8,50.6,74.9,74.1,9,9.7,16.1,23.5,10.2,36.3-2.8,6.1-6.6,13-10.7,18.6,0-12.4-5.3-19.5-12.5-26.6h-.1c-32.6-32.2-89.1-76.9-93.7-95.8-4.9-12.8-3.3-28.1-3.6-42.9ZM1537.6,1226.3c-9.4,7.4-17.2,13.8-28.6,22.7.8-22.6,4-45.5-6.9-59-24.8-24.8-49.8-49.5-74.8-74.1-8.9-9.7-16.1-23.5-10.2-36.3,3-6.5,6.6-12.8,10.7-18.7,0,12.5,5.5,19.6,12.6,26.6h0c32.6,32.2,89.1,76.9,93.7,95.9,4.8,12.8,3.3,28.1,3.5,42.9ZM1512,1062.9l-52.6-50.3v-29.4h-.1c6.2-6.8,8.5-9.4,15.8-16.5l14.9,17.8v49.6c20.9-10.2,15.9-39.9,15.9-65.7,12.4,10.2,18.7,15.9,30.5,27.1,6.8,29.7-11.1,46.6-24.4,67.4ZM1558.1,935.2l-203.3-.3v-59.1h203.3v59.4Z"/>
  <path class="st1" d="M1333,526.1c9,16.8,2,3.9,10.5,18.3l-10.5-18.3Z"/>
  <path class="st1" d="M1734.9,316.3c-50.4-76.3-131.9-137.6-219.7-168.2-81.7-24.7-170.1-37.8-259.8-37.8s-178,13.1-259.7,37.8c-87.9,30.6-169.3,91.9-219.6,168.2-83.2,121.6-158.6,356.5-161.9,590.6v.7c3.3,234,78.7,469,161.9,590.5,50.3,76.3,131.8,137.4,219.6,167.9,83.6,25.3,170.5,38.1,257.9,38.1h3.7c89.8,0,174.3-13.2,256-37.8,87.8-30.6,171.2-91.9,221.6-168.2,83-121.5,158.6-356.6,161.8-590.5v-.7c-3.2-234-78.7-469-161.8-590.6ZM1744.5,1411.3c-57.3,130-144.9,209.2-273.5,244.4-69.3,17.7-141.9,26.8-216.7,26.8s-147.8-9.1-217-26.8c-128.7-35.2-216.3-114.3-273.6-244.4-51.8-113.8-105.5-327.8-102.6-504.1-2.9-176.2,50.8-390.1,102.6-504,57.3-130,144.9-209.2,273.6-244.4,69.2-17.8,142.3-26.8,217-26.8s147.4,9.1,216.7,26.8c128.6,35.2,216.2,114.4,273.5,244.4,51.8,113.9,105.5,327.8,102.6,504,2.9,176.2-50.8,390.2-102.6,504.1Z"/>
  <path class="st1" d="M1519.3,1563.1h0c-2.9-10.9-9-19.7-21.2-23.2l-7.1-1.6c7.3-5.1,13.9-15.4,11.5-25.5-1.7-11.5-10-18.8-20.4-22.8-9.1-2.8-19.8-2.3-29.9.4-10.2,2.3-19.9,6.9-26.7,13.6-7.4,8.4-11.3,18.7-7.4,29.6,2.5,10.1,13.3,16.1,22,17.3l-5.6,4.6c-9.2,8.8-10.5,19.4-8,30.5,2.8,12.3,12.6,22,24.7,25.5,9.1,2.4,20,2.2,30.7-.3,10.6-2.6,20.4-7.6,27.3-14,9.1-8.8,13.3-21.8,10-34.1ZM1442.7,1531.5c-2.8-4.9-2.9-13,2.2-17.9,2.8-3,7-5.2,11.5-6.3,4.4-1.2,9.2-1.2,13.2.2,6.6,2,10.4,9.2,10.2,14.8,0,4-1.8,7.7-4.8,10.3-3.2,2.7-7,4.5-11.1,5.3-4.1,1.1-8.4,1.3-12.1.4-3.7-1.1-7-3.2-9.1-6.9h0ZM1491.4,1585.2c-3,3.4-8.3,6.1-14,7.5s-11.6,1.6-15.9,0c-5.4-1.9-9.5-6.3-11.1-11.8-2.2-7.6,0-15.7,6.6-20.3,2.8-2,6.9-3.8,11.2-5,4-1,8.2-1.3,12.3-.8,8,1,13.7,7.1,15.2,14.8,1.1,5.2-.2,11-4.3,15.6h0Z"/>
  <path class="st1" d="M1218.3,1605.1c.5-11.3-2.7-21.6-13.3-28.6l-6.3-3.6c8.4-2.8,17.9-10.6,18.5-20.9,1.8-11.5-3.9-20.9-12.6-27.8-7.9-5.4-18.2-8.1-28.7-8.5-10.4-.8-21,.7-29.5,5-9.5,5.8-16.4,14.5-15.9,26.1-.6,10.4,7.8,19.3,15.9,23l-6.7,2.8c-11.5,5.6-15.8,15.4-16.7,26.7-1.1,12.6,5.5,24.7,16,31.7,7.9,5,18.5,8.1,29.4,8.8,10.9.7,21.8-1.2,30.3-5.2,11.2-5.6,19.2-16.8,19.7-29.5h-.1ZM1162,1535.5c3.6-2,8.3-2.9,12.9-2.6s9.2,1.6,12.4,4.1c5.8,3.8,7.2,11.9,5.4,17.1-1.3,4.2-4.2,6.8-7.7,8.5-3.8,1.6-8,2.2-12.1,1.8-4.1,0-8.2-1.2-11.8-3.2-3.2-2.1-5.8-5.1-6.5-9.3h0c-1.2-5.4,1.2-13.3,7.4-16.4ZM1193.9,1604.3c-.6,5.7-3.9,10.7-8.8,13.6v-.2c-3.9,2.3-9.7,3.4-15.6,3-5.8-.3-11.6-2-15-4.8-4.6-3.4-7.3-8.9-7.2-14.6.2-7.8,4.7-14.9,12.3-17.3,4-1.1,8.1-1.6,12.2-1.4,4.5.3,9,1.5,12,2.9,7.3,3.3,10.9,10.9,10.1,18.8Z"/>
  <path class="st1" d="M810.6,858.7h0c-5.6-12.8-19.2-17.8-33.3-17.1-12,1.3-21,9.5-26,21.7-1.9-7.2-8.5-16.3-19.8-17.5-11.9-1.5-23.2,1.7-28.9,11.8-7.8,10-4.4,53.9-5.2,79.2h117.3v-8.7c-.6-46.6,2-52.2-4-69.4ZM744,912.1h-29c.8-27.1-3.7-41.5,13-43.4,9.8-.7,12.5,1.5,14.7,7.4,1.9,6.1,1.3,12.5,1.3,36ZM794.8,911.9h.1c0,0-32.9,0-32.9,0h-.3c.6-26.3-3.5-41.7,12.1-44.7,5.4-1.5,12.3-1,16.2,3.2,6.7,6.4,4.6,17.1,4.8,41.4Z"/>
  <polygon class="st1" points="1730.1 745 1730.1 745 1730.1 745 1730.1 745"/>
  <path class="st1" d="M1798.2,707.8h0l-122.6-24.6,3.3,23.9,26.7,4.9,5.8,42.2-24.2,12,3.3,23.9,111.2-57.2-3.5-25.1ZM1776.9,723.6l-46.8,21.4-4.1-29.1,50.9,7.7h0Z"/>
  <path class="st1" d="M961.4,227.8h0c0,0-21.6,13.3-21.6,13.3l25.9,122.3,20.6-12.5-6-26.5,36.4-22.2,20.7,17.6,20.6-12.6-96.6-79.4ZM975.8,304v.2l-13.1-49.8v-.2c0,0,0,0,0,0l38.1,34.5-25.1,15.3Z"/>
  <path class="st1" d="M792.2,570h0s0,0,0,0h0Z"/>
  <path class="st1" d="M815.7,527.8c0-8.1-.5-14.9-7.2-21.3-6.5-6.7-16.8-9.8-26.9-9.1-26.3,4-29.8,34.2-44.3,81.9l113.1,33.7,7-23.6-44.7-13.3-1.8-.6c3-10.9,7.4-24.6,9.6-27.6,8.1-18.7,38.1-.3,49.9-2.1l6.9-23.4c-20.2,1.1-47.3-16.9-61.6,5.4ZM792.1,570l-29.5-8.8c6.5-20.2,9.3-40.5,23.5-39.2,5.7.9,9.6,2.5,12.9,6.5,5.6,6.9-1.6,22-6.9,41.5Z"/>
  <path class="st1" d="M1640.8,293.2l-.2-.3-93.7,71.6,14.9,19.6,37.1-28.2,1.6-1.2c6.9,8.9,15.5,20.5,16.7,24,10.4,17.6-22.2,31-27.6,41.7l14.8,19.4c10.9-17,41.5-28.3,31.9-52.9,6.6,4.7,12.4,8.3,21.6,6.7,9.2-1.3,17.8-7.8,23.1-16.4,12.2-23.6-10.1-44.2-40.2-84ZM1658.2,366.1c-4.1,4-7.7,6.3-13,6.6-8.8.4-16.8-14.2-29.4-30l24.4-18.7c12.6,17.1,27.3,31.4,17.9,42.1h0Z"/>
  <g>
    <polygon class="st1" points="1666 1887.7 1665.9 1887.9 1665.9 1888 1644 1961.4 1644.1 1961.4 1687.9 1961.4 1666 1888 1666 1887.7"/>
    <path class="st1" d="M601.8,1900c0-13.4-10.3-19.5-21.9-19.5h-42.6v42.3h43.9c12.8,0,20.6-9.4,20.6-22.8Z"/>
    <path class="st1" d="M583.7,1951.2c-17.3-1-33.4-.9-46.4-.9h0s0,.3,0,.3v49c36.2-.4,37.4,0,49.9-1.4,12.4-1.5,18.4-12.5,18.4-23.5s-8.2-22.6-21.8-23.5Z"/>
    <path class="st1" d="M1144.8,1882.5c-10.3-.8-29.2.4-46.4,0v45.2c33.7,0,38.8,0,49.3-1.1h0c10.4-.9,17.1-10.3,17.1-23.2,0-13-9.6-20-20-20.9Z"/>
    <path class="st1" d="M336.1,1806.7v270.2h1838.7v-270.2H336.1ZM583.7,2028.7h-83v-175.3h84.8c29,0,48.4,14.6,50.5,41.4,1.9,18.7-4,34.7-26.2,40.3,19.6,5.4,32.3,23.5,32.4,46.7,0,19.9-15.4,46.9-58.5,46.9ZM911.6,1981.4c-.5,13.1-3.8,24.1-16.2,34.4-14.4,12.3-34.1,17.4-53.8,17.3h-.5c-19.8,0-39.3-5-53.8-17.3-12.4-10.2-15.8-21.3-16.3-34.4v-127.7h36.2v127.7c.5,10.5,8.4,18.1,17.5,21.6,5,2.2,10.8,3,16.6,2.8h0c5.8.2,11.5-.6,16.5-2.8,9.1-3.4,17.3-12.1,17.4-21.6v-127.7h36.3v127.7ZM1168.5,2028.8c-8.3,0,4-69.6-26.1-71.5-16.9-1.1-27.4-.4-44.1,0v71.6h-36.5v-175.5c33.7.2,52.9.4,83.1.4,27,1.3,54.1,12.3,55.9,41.8,2,34-17.2,41.9-35.3,47.7,41.8,9,26.3,57.9,37.5,85.6h-34.5ZM1468.1,1882.1h-92.2v37.8h80.4,0q0,0,0,0v30.4h-80.7v49.1h92.4v29.2h-129v-175.6h129.1s0,29.1,0,29.2ZM1710.2,2028.8l-12.7-38.4h-63.4l-12.7,38.4h-35.9l61.4-175.6h37.7l61.5,175.6h-35.9ZM1999.4,1981.2c-.6,13.1-3.9,24.2-16.3,34.4-14.4,12.4-34,17.4-53.8,17.3h-.5c-19.8,0-39.3-4.9-53.8-17.3-12.4-10.2-15.7-21.3-16.3-34.4v-127.7h36.3v127.7c.4,10.5,8.4,18.2,17.5,21.6,5,2.1,10.8,3,16.6,2.8h.1c5.7.2,11.5-.7,16.5-2.8,9.1-3.4,17.2-12.1,17.4-21.6v-127.7h36.3v127.7Z"/>
  </g>
  <g>
    <path class="st0" d="M1699.8,2200s0,.2,0,.2h0c0,.1-21.9,73.6-21.9,73.6h43.8l-21.8-73.5v-.3Z"/>
    <path class="st0" d="M1101.9,2255.2s0,0,.1,0c0,0-.2,0-.2,0h0Z"/>
    <path class="st0" d="M330.7,2119.6v270.1h1838.7v-270.1H330.7ZM581,2341.2h-33.6l-59.6-175.6h38.4c12.2,43.7,25.2,93.4,38,129.9,12.7-36.5,25.8-86.2,37.9-129.9h37.9l-59,175.6ZM862.5,2232.5h0c0-.1,0,0,0,0h0c0,1.9,0,30.3,0,30.2h-80.5v49.2h92.3v29.1h-129v-175.6h129.1l-.2,29.1h-92.1v38h80.4ZM1104.8,2340.6c-8.3,0,4-69.6-26.1-71.5-16.9-.9-27.4-.2-44.2,0l.2,71.6h-36.6v-175.5c33.7.3,52.9.4,83.1.4,27.1,1.5,54.1,12.4,56,41.9,2,33.9-17.1,41.9-35.2,47.7,41.6,9,26.2,57.8,37.4,85.4h-34.6ZM1305.2,2341.2h-36.7v-175.6h36.7v175.6ZM1549,2195.6h-52.5v145.6h-36.5v-145.6h-52.8v-28.8h141.8v28.8ZM1744.1,2341.2l-12.7-38.3h-63.4l-12.7,38.3h-36l61.6-175.6h37.5l61.6,175.6h-35.9ZM1937.7,2345.2c-53.4,0-73.9-33.3-73.9-58.9h0c0-.1,33.6-1.3,33.6-1.3,0,14,18.7,32.1,37.5,32.1s39.9,12.8,39.9-24.6-105.7-15.5-105.7-74.7,3.4-58.5,67.8-58.5,70.1,43.8,70.1,55l-33.7,1.2c0-14.3-6.8-27.5-32.5-27.5s-35.8-8-35.8,23.5,106.3,15.4,106.3,74.5-20.3,59.2-73.7,59.2Z"/>
    <path class="st0" d="M1081.3,2194.4c-10.4-.9-29.2.3-46.4,0v45.2c33.6.2,38.8,0,49.2-1h0c10.4-1.1,17.2-10.5,17.2-23.4,0-12.9-9.6-20-20-20.8Z"/>
  </g>
</svg>