<?xml version="1.0" encoding="UTF-8"?>
<svg id="Layer_1" xmlns="http://www.w3.org/2000/svg" version="1.1" viewBox="0 0 313.9 366.1">
  <!-- Generator: Adobe Illustrator 29.7.1, SVG Export Plug-In . SVG Version: 2.1.1 Build 8)  -->
  <defs>
    <style>
      .st0 {
        fill: #14587b;
      }

      .st1 {
        fill: #fff;
      }

      .st2 {
        fill: #1896c7;
      }

      .st3 {
        fill: #f0fbfe;
      }

      .st4 {
        fill: #1c7391;
      }

      .st5 {
        fill: #11316a;
      }
    </style>
  </defs>
  <path class="st5" d="M180.4,361.9l-18.4.6h-15.6c-53.4-2.1-94.5-41.7-94.5-95l-.5-166.5c0-58.8,32.9-90.8,92.9-97.2.9,0,2.3-.2,3.2-.2h16.6c.2,0,.6,0,.6,0l12,.6c53.2.6,94.1,40.7,94.1,94l-.6,173.8c0,53.3-41.6,86.7-89.8,89.9Z"/>
  <path class="st0" d="M232.4,184c0,44.4-28.7,75.4-71,75.4s-72.3-31.5-72.3-75.9,30-75.9,72.3-75.9,71,32.1,71,76.4Z"/>
  <path class="st1" d="M158.8,71.4c-57.7,0-103.5,49.9-103.5,111.8s43.6,111.5,105.4,111.5,105.5-53.7,105.4-111.1c0-61.9-43.2-112.4-107.4-112.3ZM160.8,290.4c-59.4,0-101.2-47.6-101.2-107s43.9-107.2,99.3-107.3c61.6,0,102.9,48.4,103,107.7,0,55-41.8,106.5-101.2,106.5Z"/>
  <path class="st1" d="M159.5,103.9c-39.8,0-73.5,36.7-73.5,79.3s32,79.2,74.6,79.2,74.8-39,74.8-78.5c0-42.6-31.7-80.1-75.9-80.1ZM161.5,257c-40.9,0-70.2-33.8-70.2-74.7s29.7-72.4,67.8-72.4,70.6,36.3,70.5,76.9c0,30-26.6,70.3-68.1,70.2Z"/>
  <polyline class="st2" points="157.1 183.1 230.6 257 188.6 201.1"/>
  <polyline class="st3" points="188.6 201.1 310.3 183.1 157.1 183.1"/>
  <polyline class="st3" points="157.1 183.1 230.6 257 176.2 216.7"/>
  <polyline class="st2" points="176.2 216.7 156.8 346.2 157.1 183.1"/>
  <path class="st1" d="M313.9,183.6"/>
  <polyline class="st2" points="156.8 183.1 83.3 109.1 125.2 165"/>
  <polyline class="st3" points="125.2 165 3.9 182.5 156.8 183.1"/>
  <polyline class="st3" points="156.8 183.1 83.3 109.1 137.7 149.4"/>
  <polyline class="st2" points="137.7 149.4 157.1 19.9 156.8 183.1"/>
  <polyline class="st3" points="156.8 183.1 230.5 109.3 188.3 165.1"/>
  <polyline class="st2" points="188.3 165.1 309.9 183 156.8 183.1"/>
  <polyline class="st2" points="156.8 183.1 230.5 109.3 175.9 149.5"/>
  <polyline class="st3" points="175.9 149.5 156.9 19.9 156.8 183.1"/>
  <polyline class="st3" points="157.1 183.1 83.4 256.8 125.5 201"/>
  <polyline class="st2" points="125.5 201 3.9 182.5 157.1 183.1"/>
  <polyline class="st2" points="157.1 183.1 83.4 256.8 137.9 216.7"/>
  <polyline class="st3" points="137.9 216.7 157 346.2 157.1 183.1"/>
  <path class="st4" d="M209,182.4c-.1-.7-1.4-2.3-2.1-2.5-.7-.2-1.4,0-2,.2l-8.6-1.9c0-.2,0-.4,0-.6-.2-.6,0-1-.2-1.5-.1-.4-.1-.7-.2-1,0-.3-.1-.6-.2-.8,0-.3-.1-.6-.2-.8,0-.3-.1-.6-.2-.8,0-.2-.1-.4-.2-.6,0-.3-.1-.6-.2-.8,0-.2-.1-.4-.2-.6,0-.2-.1-.4-.2-.6,0,0-.1-.2-.2-.4-.1-.3-.1-.5-.2-.6-1.4-3.5-3.5-6.6-5.6-9.8l4.6-7.5c.5-.5,1.3-1.2,1.4-1.7,0-.2,0-1.9,0-2.1,0-.4-1.5-1.9-1.9-2.1,0,0-.8-.2-.8-.2-.2,0-.6,0-.8,0-1.2.2-1.8,1.1-2.5,1.9,0,.1-.1.2-.2.3l-7.4,4.1c-1.4-1-3.7-2.8-4.4-3.1-1.8-1-3.9-2-5.7-2.7-.3,0-.4-.2-.4-.2-.2,0-.4-.1-.6-.2-.2,0-.4-.2-.6-.2-.3,0-.6-.1-.8-.2-.2,0-.4-.2-.6-.2-.3,0-.6-.1-.8-.2-.3,0-.6-.1-.8-.2-.3,0-.6-.1-.8-.2-.4-.1-.8,0-1.2-.2-.3,0-.7-.2-1-.2-.1,0-.2,0-.3,0l-2.4-8.6c.2-.7.5-1.4.2-2.2,0-.1-1.7-1.8-1.9-1.9-.2,0-2.1,0-2.3,0-.9.2-2.2,2-2.3,2.9,0,0,0,.1,0,.2,0,.2,0,.4.2.7l-2.2,8.9c0,0-.2,0-.3,0-.6.2-.9.1-1.2.2-.4.1-.7.1-1,.2-.3,0-.6.1-.8.2-.3,0-.6.1-.8.2-.3,0-.6.1-.8.2-.2,0-.4.1-.6.2-.3,0-.6.1-.8.2-.2,0-.4.1-.6.2-.2,0-.4.1-.6.2,0,0-.2.1-.4.2-.3.1-.7.3-1,.4-2.1.9-4.3,2.1-6.4,3.3-.4.2-1.6,1.2-2.6,1.9l-7.8-4.3c-.4-.5-1.2-1.4-1.6-1.6,0,0-.6-.2-.6-.2-.3,0-.8,0-1,0-.8.1-2.5,1.5-2.7,2.3,0,.2,0,1.9,0,2.1.2.9,1.3,1.3,1.9,1.9,0,0,.1,0,.2.1l4.3,7c-.8,1-2.1,2.7-2.4,3.2-1.1,1.9-2.2,3.9-3.1,5.9-.1.3-.3.7-.4,1,0,.2-.2.4-.2.4,0,.2-.1.4-.2.6,0,.2-.1.4-.2.6,0,.2-.1.4-.2.6,0,.2-.2.4-.2.6,0,.3-.1.6-.2.8,0,.2-.2.5-.2.6,0,.3-.1.7-.2,1,0,.3-.2.6-.2.8,0,.4-.1.8-.2,1.2,0,.4-.1.8-.2,1.2,0,.2,0,.4,0,.6l-2.7.6c-.1,0-.2,0-.3,0,0,0-.1,0-.2.1l-4.7,1.1c-.3-.2-.5-.3-.6-.3-.3,0-1.9,0-2.1,0-.7.2-2,2-2.1,2.7,0,.2,0,.6,0,.8.2,1.3,1.8,2.8,3.1,2.9,0,0,.1,0,.2,0,0,0,.5-.2.8-.2.1,0,.4-.2.7-.3l7.8,2.4s0,0,0,0c.1.5.1.8.2,1.2,0,.4.1.8.2,1.2,0,.3.1.7.2,1,0,.3.1.6.2.8,0,0,.1.4.2.6,0,.3.1.6.2.8,0,.2.1.4.2.6,0,.2.1.4.2.6,0,.2.1.4.2.6,0,.2.1.4.2.6.1.3.3.7.4,1,.7,1.7,1.8,3.7,2.7,5.3.5.8,2.1,2.8,3,4.2l-4.2,6.9s0,0,0,0c-.6.6-1.8,1.1-2.1,2.1,0,.2,0,1.7,0,1.9.2.6,1.7,2.1,2.3,2.3.2,0,1.9,0,2.1,0,.5-.2,1-.9,1.4-1.6l7.9-4.4c1,.7,2.1,1.7,2.6,2,2,1.2,4.2,2.4,6.4,3.3.3.1.7.3,1,.4.2,0,.4.1.6.2.2,0,.4.2.4.2.2,0,.4.1.6.2.2,0,.5.1.8.2.2,0,.5.2.6.2.3,0,.6.1.8.2.3,0,.6.1.8.2.3,0,.7.1,1,.2.3,0,.7.1,1,.2.4,0,.7,0,1.2.2.2,0,.3,0,.5,0l2.1,8.2c-.1.2-.2.4-.2.5,0,.3,0,1.9,0,2.1,0,.3,1.7,1.8,2.1,1.9.2,0,1.9,0,2.1,0,.4,0,2-1.6,2.1-1.9.3-1.1-.1-1.9-.4-2.8l2.2-8c.2,0,.3,0,.5,0,.4,0,.9-.1,1.2-.2.4,0,.9-.1,1.2-.2.3,0,.6-.1.8-.2.4,0,.7-.1,1-.2.1,0,.4-.1.6-.2.3,0,.6-.1.8-.2.1,0,.4-.1.6-.2.2,0,.4-.1.6-.2.2,0,.4-.1.6-.2.2,0,.4-.1.6-.2,0,0,.2-.1.4-.2,3.6-1.5,6.9-3.7,10.1-5.8l6.9,4.2c.1.2,0,.4,0,.4.4.5,1.3,1.5,1.9,1.7.2,0,1.9,0,2.1,0,.4-.1,2-1.7,2.1-2.1,0-.2,0-2.1,0-2.3-.2-.7-1.5-1.4-2.1-1.9l-4-7.2c.7-.9,1.6-1.9,1.9-2.5,1.3-2.2,2.7-4.8,3.7-7.2,0-.2.2-.4.2-.4,0-.2.1-.4.2-.6,0-.2.1-.4.2-.6,0-.2.2-.4.2-.6,0-.2.2-.4.2-.6,0-.3.1-.6.2-.8,0-.2.2-.5.2-.6,0-.3.1-.6.2-.8,0-.3.1-.7.2-1,0-.3.1-.7.2-1,0-.4,0-.8.2-1.2,0,0,0,0,0,0l8.7-2.6c.6.2,1.2.4,1.9.2.5-.1,2-1.8,2.1-2.3,0-.3,0-1.2,0-1.5ZM187.9,187c0,.5-.1,1-.2,1.5,0,.3-.1.7-.2,1,0,.2-.1.6-.2.8,0,.3-.1.6-.2.8,0,0-.1.4-.2.6,0,.2-.1.4-.2.6,0,.2-.1.4-.2.6,0,.2-.1.4-.2.6-.1.3-.3.7-.4,1-.4.8-2.6,4.9-4.1,6.8l-11.8-10.6c.3-.6.6-1.2.8-1.9,0-.2.1-.5.2-.6.1-.3.1-.4.2-.6,0-.2.1-.4.2-.6,0-.1,0-.3,0-.4l16.3-.2c0,.1,0,.2,0,.3ZM187.9,179.4l-16.4-.5s0,0,0,0c0-.2-.1-.4-.2-.6,0-.2,0-.3-.2-.6-.3-.8-.6-1.6-.9-2.3l11.2-11.2c2.2,2.6,4,5.9,5.2,9.1,0,.2.2.4.2.6,0,.2.2.5.2.6,0,.2.2.6.2.6,0,.3.2.6.2.8,0,.3.2.6.2.8,0,.4.2.9.2,1.2,0,.4.2.9.2,1.2,0,0,0,0,0,0ZM163.4,152.7c.2,0,.6.1.8.2.3,0,.6.1.8.2.3,0,.6.1.8.2.2,0,.4.1.6.2.2,0,.4.1.6.2.2,0,.4.1.6.2,3,1.2,5.8,3.1,8.5,5l-11.8,11c-.5-.2-.9-.3-1.4-.5,0,0-.2-.1-.4-.2-.3-.1-.5-.1-.6-.2-.3-.1-.5-.1-.6-.2-.2,0-.3,0-.5-.1l.6-16.3c.3,0,.6.1.9.2.3,0,.7.1,1,.2ZM146.1,154.1c.2,0,.4-.1.6-.2.3-.1.4-.2.4-.2.2,0,.4-.2.6-.2.2,0,.6-.1.8-.2.2,0,.5-.2.6-.2.2,0,.6-.2.8-.2.3,0,.7-.2.8-.2.4,0,.8-.1,1.2-.2.4,0,1.2-.2,1.2-.2,0,0,.1,0,.2,0v16.3c-.2,0-.4,0-.6.1-.1,0-.3,0-.6.2-.1,0-.3,0-.6.2-.4.1-.7.3-1.1.4l-12.2-11c2-1.6,6.7-4.1,7.6-4.4ZM127.1,175.4s.1-.4.2-.6c0-.3.1-.6.2-.8,0-.2.1-.4.2-.6,0-.2.1-.4.2-.6.1-.3.3-.7.4-1,.4-.9,3-5.7,4.5-7.5l11.6,9.6.4.4c-.9,1-1.2,2.2-1.7,3.4-.2.3-.2.5-.2.6-.2.3-.1.5-.2.6,0,.2,0,.4-.1.5l-16.2-.5c0-.3,0-.6.1-.7,0-.2.2-.7.2-1,0-.3.2-.7.2-1,0-.1.2-.6.2-.8ZM142.6,186.7c0,.2,0,.3.1.5,0,.1,0,.3.2.6,0,.1,0,.3.2.6.2.5.8,1.7,1.3,2.5l-11.7,10.8c-1.6-1.9-4.2-6.8-4.5-7.8,0-.2-.1-.4-.2-.6,0-.2-.1-.4-.2-.6,0-.2-.1-.4-.2-.6,0-.2-.2-.4-.2-.6,0-.3-.1-.6-.2-.8,0-.3-.1-.6-.2-.8,0-.3-.2-.6-.2-.8,0-.4-.1-.9-.2-1.2,0-.2,0-.7-.1-1l16.2-.2ZM149.8,213.3s-.4-.1-.6-.2c-.3,0-.6-.1-.8-.2-.1,0-.4-.1-.6-.2-.2,0-.4-.1-.6-.2-.2,0-.4-.1-.6-.2,0,0-.2-.1-.4-.2-.3-.1-.5-.2-.6-.2-2.5-1.1-4.9-2.8-7.1-4.3l11.3-11.3c.7.3,1.4.6,2.1.9.3.1.4.1.6.2.4.2.7.1.8.2.2,0,.3,0,.4.1v16.3c-.1,0-.3,0-.4,0-.4,0-.8-.1-1.2-.2-.3,0-.7-.1-1-.2-.3,0-.7-.1-1-.2ZM167.7,212.2c-.2,0-.4.1-.6.2-.2,0-.4.1-.6.2-.2,0-.4.2-.6.2-.2,0-.6.1-.8.2-.3,0-.6.2-.8.2-.3,0-.6.2-.8.2-.3,0-.7.1-1,.2-.4,0-1,.2-1.5.2,0,0,0,0,0,0l.6-16.5c.1,0,.3,0,.4-.1.2,0,.3,0,.6-.2.6-.2,1.1-.4,1.6-.7l12.6,10.5c-2.9,2-5.8,4.1-9.1,5.3Z"/>
  <path class="st1" d="M158.6,175.9c0,0,.7.2.8.2,1.6.5,3.6,2.8,4.2,4.4,0,.3.2.6.2.6,0,.7,0,2.2,0,2.9s-.1.3-.2.6c-.5,1.5-2.6,3.9-4.2,4.4s-.6.2-.6.2c-.5,0-2.6,0-3.1,0s-.7-.2-.8-.2c-1.3-.4-3.8-2.9-4.2-4.2s-.2-.8-.2-.8c0-.5,0-2.4,0-2.9s.2-.7.2-.8c.4-1.1,2.6-3.5,3.7-4s.5-.2.6-.2c.2,0,.6-.2.6-.2.5,0,2.4,0,2.9,0Z"/>
</svg>