<?xml version="1.0" encoding="UTF-8"?>
<svg id="Layer_1" xmlns="http://www.w3.org/2000/svg" version="1.1" viewBox="0 0 2048 2007">
  <!-- Generator: Adobe Illustrator 29.7.1, SVG Export Plug-In . SVG Version: 2.1.1 Build 8)  -->
  <defs>
    <style>
      .st0 {
        fill: #6085ae;
      }

      .st1 {
        fill: #244a86;
      }

      .st2 {
        fill: #14587b;
      }

      .st3 {
        fill: #5782ad;
      }

      .st4 {
        fill: #fff;
      }

      .st5 {
        fill: #fbc62a;
      }

      .st6 {
        fill: #0188dd;
        font-family: Poppins-Light, Poppins;
        font-size: 49.2px;
        font-weight: 300;
        letter-spacing: .1em;
      }

      .st7 {
        fill: #f9ad2d;
      }

      .st8 {
        fill: #1896c7;
      }

      .st9 {
        fill: #2067a1;
      }

      .st10 {
        fill: #1c326c;
      }

      .st11 {
        fill: #f48048;
      }

      .st12 {
        fill: #f0fbfe;
      }

      .st13 {
        fill: #f5832d;
      }

      .st14 {
        fill: #0da549;
      }

      .st15 {
        fill: #1c7391;
      }

      .st16 {
        fill: #11316a;
      }

      .st17 {
        fill: #f5832e;
      }

      .st18 {
        fill: #23538e;
      }

      .st19 {
        fill: #f9b325;
      }

      .st20 {
        fill: #f6912c;
      }

      .st21 {
        fill: #fbd149;
      }

      .st22 {
        fill: #f5952a;
      }

      .st23 {
        fill: #225e99;
      }
    </style>
  </defs>
  <path class="st1" d="M1566.5,711.9h2.5q162.2,1.6,220.4,30.7c-.7,5.1-2.7,9.3-5,13.8l-1.2,2.4c-1.3,2.5-2.5,5.1-3.8,7.6l-1.3,2.6c-6.9,13.8-14.2,27.4-22,40.7-1.8,3.1-3.6,6.2-5.4,9.3-9.9,17.2-20.1,34-31.1,50.5-1.6,2.4-3.3,4.9-4.9,7.3-7.8,11.9-16,23.6-24.3,35.2l-1.9,2.7c-12.8,18-26.3,35.3-40.3,52.4-2.7,3.3-5.3,6.5-7.9,9.9-5.3,6.6-10.8,13-16.4,19.4-1.7,2-3.4,4-5.1,6-8.1,9.6-16.7,18.9-25.3,28-1.9,2-3.7,4-5.5,6-9.5,10.4-19.4,20.4-29.4,30.3l-2.2,2.2q-13.9,14-21,20c-3.5,3-6.9,6.3-10.3,9.5-5.8,5.5-11.7,10.7-18,15.7-3.9,3.2-7.8,6.6-11.6,9.9-7.3,6.4-14.8,12.4-22.5,18.4-2.3,1.8-4.7,3.6-7,5.5-16.9,13.3-34.3,25.9-52.2,38-2,1.4-4,2.7-6,4.1-22.2,15.1-45.4,28.7-68.9,41.7l-3.5,1.9c-88.5,48.9-184.7,81.2-391.8,110.9h-2.5c-11.1.8-22.1,1-33.2.9,4-2.7,8-3.7,12.5-5l5.7-1.6,3-.9c21.3-6.1,42.3-12.7,63.2-19.9,4.3-1.5,8.5-2.9,12.8-4.3,32.1-10.4,63.7-22.6,94.9-35.5l3.6-1.5c43.5-17.9,86.7-37.2,128-59.7,2.8-1.5,5.5-3,8.3-4.5,15.7-8.4,31-17.4,46.2-26.5,3.5-2.1,7-4.2,10.5-6.3,15.9-9.5,31.3-19.7,46.6-30.1l2.6-1.8c24.7-16.7,48.5-34.5,71.6-53.4,1.8-1.5,3.6-2.9,5.4-4.4,12.1-9.8,23.9-19.9,35.4-30.6,2.5-2.3,5.1-4.6,7.7-6.9,11.5-10,22.4-20.6,33.1-31.3l2.7-2.7c4.7-4.7,9.2-9.5,13.5-14.5,3.5-4,7.2-7.8,10.9-11.7,5.9-6.3,11.6-12.5,17-19.3,3-3.7,6.1-7.3,9.2-10.8,6.1-7.1,12-14.3,17.7-21.8,1.3-1.7,2.6-3.3,3.9-5,10.1-13,19.8-26.2,28.9-39.9,2.1-3.2,4.3-6.3,6.4-9.5,14.8-22,28.7-44.4,41.6-67.6,1.7-3.1,3.5-6.2,5.2-9.3l3.2-5.6,1.5-2.6q2.3-3.4,3.3-7.2c-17.1-1.8-34.3-3.5-51.5-4.7l-3.8-.3c-4.3-.3-8.7-.5-13-.7l-2.9-.2c-23.3-1.2-46.7-1.2-70-1.2h-3c-71.3,0-142.2,4.4-212.9,13.9l-3.2.4c-76.2,10.2-151.7,24.7-226.5,42.8l-3.9.9c-34.5,8.4-68.8,17.5-102.8,27.3l-2.4.7c-19.6,5.7-39.2,11.5-58.7,17.6-7.2,2.2-14.4,4.5-21.7,6.6-17,5.2-33.8,10.8-50.6,16.5-3.8,1.3-7.6,2.5-11.3,3.8-25.9,8.7-51.6,17.7-77.2,27l-4,1.4c-15.6,5.7-31.1,11.5-46.6,17.4-3.1,1.2-6.2,2.4-9.3,3.6-37.6,14.3-75,28.8-112.1,44.4-8.3,3.5-16.6,6.9-24.9,10.3-13.9,5.7-27.7,11.5-41.6,17.3l-2.3,1-6.6,2.8-2.1.9c-3.9,1.7-7.7,3.3-11.6,5.1l-2.5,1.1c-1.6.7-3.2,1.5-4.8,2.2-1.9.8-3.8,1.6-5.8,2.3l-2.3-1.1c17.6-10.6,35.5-20.8,53.4-30.7l3.1-1.7c29.9-16.5,60.1-32.4,90.7-47.5,9.7-4.8,19.4-9.7,29.1-14.6,18.6-9.4,37.2-18.5,56.2-27.1,4.1-1.9,8.2-3.8,12.3-5.8,9.6-4.6,19.4-8.9,29.2-13.2,6.7-2.9,13.3-5.9,19.8-9,8.5-4,17.1-7.7,25.7-11.3l2.4-1c34.2-14.5,68.7-28.4,103.3-41.9,2.2-.9,4.4-1.7,6.6-2.6,38.5-15,77.6-28.6,116.8-41.4,3.8-1.2,7.5-2.5,11.3-3.7,47.1-15.5,94.8-28.8,142.9-40.8l6.6-1.7c34-8.5,68.1-15.8,102.5-22.2l3.4-.6c33.6-6.3,67.3-11.3,101.2-15.3q1.4-.2,2.9-.3c58.1-6.8,116.1-9.3,174.5-8.8"/>
  <path class="st14" d="M280.3,84.2q0,3.4-1.4,6l-1.9,3.1-2.2,3.5-2.4,3.8c-1.7,2.7-3.4,5.4-5,8.1l-1.3,2.1c-4.8,7.7-9.4,15.5-13.9,23.3l-1.2,2.1c-2.7,4.7-5.4,9.3-8.2,14l-2,3.4c-3.9,6.8-7.8,13.6-11.7,20.5l-1.6,2.9q-23.6,41.9-39.1,87.2c-1.3,5.1-2.8,10.1-4.4,15.1-5.2,16.3-9.6,32.8-13.7,49.5-1.1,4.3-2.2,8.6-3.2,13-6.6,26.4-12.4,53-16.7,79.9l-.8,4.9c-.7,4.1-1.3,8.2-2,12.3-.4,2.6-.8,5.2-1.3,7.8-2.1,12.5-3.6,25-4.9,37.6,0,.9-.2,1.9-.3,2.9-7.9,78.9-8,158.9,4.9,237.3l.4,2.3c16.2,97.9,50.5,193.1,131.5,324.1.6.8,1.1,1.6,1.7,2.4,12.2,17.2,24.9,34,38.6,49.9,2.7,3.1,5.3,6.3,7.8,9.5,4.6,5.7,9.6,11.1,14.6,16.4,3.1,3.3,6.2,6.7,9.1,10.1,4,4.6,8.1,8.9,12.4,13.1l2.3,2.3c1.6,1.6,3.1,3.1,4.7,4.7,2.4,2.4,4.8,4.8,7.2,7.2l4.6,4.6,2.1,2.1c4.3,4.3,8.7,8.3,13.3,12.3,2.5,2.2,5,4.4,7.5,6.7,4.8,4.4,9.8,8.6,14.9,12.7,2.5,2.1,5.1,4.1,7.6,6.2,47.2,38.9,99.8,72.1,154.8,98.8,2,1,3.9,1.9,5.9,2.9,53,26.1,108.5,47.1,165.6,62.4l2.6.7c4.3,1.2,8.6,2.3,12.9,3.4l4.8,1.3,4.3,1.1q3.3,1.1,5.6,3.4c-93.5-6.8-185.2-31.9-269.5-72.8l-2.8-1.3c-4.4-2.2-8.9-4.4-13.3-6.6-2.3-1.2-4.6-2.3-6.9-3.5-15.5-7.9-30.3-17-45.1-26.1-2.9-1.8-5.9-3.6-8.8-5.4-25.3-15.4-49.4-33.4-72-52.5l-1.9-1.6c-7.6-6.5-15.2-13-22.6-19.7-1.7-1.5-3.4-3.1-5.2-4.6-9-7.9-17.5-16.5-26-25-2.6-2.6-5.2-5.2-7.8-7.8-1.7-1.7-3.4-3.4-5.1-5.1l-2.3-2.3c-5-5.1-9.8-10.3-14.5-15.8-1.6-1.8-3.2-3.6-4.8-5.3-11.8-13.1-22.5-26.7-32.9-40.8-1.9-2.5-3.7-5-5.6-7.4-19.2-25-35.8-52-50.9-79.5-1.3-2.3-2.6-4.6-3.9-6.9-26.9-47.5-47-98.8-62.2-151.1l-1.2-4.2c-13.8-47.7-21.4-96.6-26.1-145.9-1.7,99,22.7,202.9,62.2,293.5,1.5,3.4,3,6.9,4.4,10.3,6.8,15.6,14.1,30.9,21.7,46.2l1.4,2.8c5.9,12,12.4,23.7,19.5,35.1,1.2,2,2.4,4,3.6,6,6.4,10.8,13,21.4,20.1,31.7,1.4,2,2.7,4.1,4.1,6.2,14.7,22.4,30.9,43.6,47.9,64.3,1.5,1.9,3,3.7,4.5,5.6,5.2,6.4,10.6,12.6,16.2,18.6,2.1,2.3,4.3,4.7,6.3,7.2,10.6,12.1,21.8,23.6,33.1,35l3.2,3.2c5.2,5.2,10.4,10.2,15.9,14.9,3.2,2.7,6.2,5.6,9.2,8.4,5.4,5.1,11.1,9.9,16.8,14.5,3.1,2.5,6.1,5.1,9.1,7.7,7.4,6.4,14.9,12.5,22.7,18.4,2.5,1.9,4.9,3.7,7.4,5.6,53.9,40.9,112.4,77.3,173.8,105.6,3.7,1.7,7.3,3.5,10.9,5.3l-3.4,1.1q-2.6-.5-5.8-1.5l-3.5-1.1-3.8-1.2-4-1.3c-4.1-1.3-8.3-2.7-12.4-4l-3.7-1.2c-32.3-10.5-63.6-23.9-94.1-38.6l-3.3-1.6c-16.4-7.9-32.2-16.6-47.9-25.7l-2.9-1.7c-30.5-17.7-59-38.2-86.9-59.7l-2.4-1.9c-8.6-6.6-16.9-13.5-24.9-20.9-1.5-1.3-3-2.7-4.5-4-4.3-3.8-8.6-7.6-12.9-11.5-1.6-1.5-3.3-2.9-5-4.4-6.5-5.6-12.6-11.5-18.6-17.6-1.7-1.7-3.4-3.4-5.2-5.2-5.4-5.4-10.8-10.9-15.8-16.8-2.9-3.4-6-6.6-9-9.8-5.3-5.7-10.4-11.5-15.2-17.5-2.3-2.8-4.6-5.6-7-8.3-7.7-8.9-14.7-18.3-21.7-27.8l-1.8-2.4c-14.3-19.4-28-39.4-40.3-60.2l-2.6-4.3c-41-68.5-70.7-142.3-89.5-219.7l-.6-2.4c-13.7-56.7-20.4-114.8-20.2-173.1,0-3.9,0-7.8,0-11.7,0-28.2,1.2-56.4,4.5-84.5l.3-2.4c11.4-96.7,38.7-194.4,83.2-281.2,1.9-3.7,3.6-7.4,5.3-11.1,5.9-12.8,12.7-25.2,19.6-37.5l1.7-3c11.6-20.7,23.6-41.1,37-60.7,1.3-2,2.7-4,4-6,12.6-18.8,25.7-37.2,39.5-55.1,1.7-2.3,3.5-4.5,5.2-6.8,5.7-7.5,11.6-14.7,17.6-21.8,2.8-3.2,5.5-6.6,8.1-9.9,5.6-6.9,11.6-13.4,17.6-19.8"/>
  <path class="st23" d="M793.8,624.3c59.2-.7,117.9,2.1,176.8,8l2.9.3c66.1,6.6,131.7,19.9,196.1,36.1l2.3.6c19.9,5,39.6,10.7,59.2,16.6l3.4,1c15.3,4.5,30.4,9.5,45.3,14.8v2.3l-3.6.9-2.4.6-21.3,5.6c-11,2.9-22,5.8-33,8.6-68.9,18-137.4,37.9-204.9,60.8-3.7,1.3-7.4,2.5-11.2,3.8-83.4,28-166.3,58.8-246.7,94.7l-3.7,1.6c-8.3,3.7-16.6,7.4-24.9,11.2-3,1.3-5.9,2.7-8.9,4-22.2,9.9-44.1,20.3-66,31-4.8,2.4-9.7,4.7-14.6,7-16.6,7.8-32.8,16.3-48.9,25.1-5.3,2.8-10.6,5.6-16,8.4-11.6,6-23,12.4-34.3,18.9-2.3,1.3-4.6,2.7-7,4-21.7,12.4-43.1,25.2-64.4,38.4l-2.9,1.8c-1.8,1.1-3.5,2.2-5.2,3.3-1.9,1.2-3.9,2.3-5.9,3.5h-2.3c1.8-4.5,4.9-7.7,8.2-11.2l3.8-4,2-2.1c1.8-1.9,3.5-3.8,5.2-5.7,9.4-10.3,19.1-20.1,28.9-29.9l2.1-2.1q13.5-13.5,20.5-19.5c3.2-2.7,6.2-5.5,9.2-8.3l3.9-3.6,1.9-1.8c7.2-6.7,14.5-13.1,22.2-19.3,2.5-2,5-4.1,7.5-6.2,30.1-24.8,62-47.4,94.9-68.3l2.2-1.4c21.5-13.7,43.5-26.4,66-38.4l3.7-2c84.4-44.7,175.2-79.1,289.7-101.5v-2.3l-2.3-.9c-2.5-1-5-2.1-7.5-3.2-93.9-42.2-212.4-43.7-459.9-49.3,20.8-11.4,51.7-13.2,75.1-17.1l3.8-.6c41.2-6.8,83-10.6,124.7-13l4.4-.2c10.5-.6,21-.8,31.5-.9"/>
  <path class="st9" d="M1784.6,1052.8h2.8c73,.2,140.1,19.1,206.8,48l3.7,1.6,3.4,1.5,3,1.3,2.3,1.2,1.1,2.3c-4.9.9-9.7,1.4-14.7,1.6-1.6,0-3.1.2-4.7.2h-2.5c-46.4,2.5-91.6,10.7-136.3,23.2l-3.8,1.1c-90.1,25.7-188.4,71.9-257.8,135.4l-3.2,2.9c-12,10.9-24.1,22.1-34.3,34.7l-1.4,1.7c-14.3,17.3-27,35.2-37.2,55.1l-1.2,2.3c-13,25.7-18.5,53.2-17,81.9,2,22.5,9.7,43.4,21.5,62.5,6.1,8.6,13.9,14.4,23.3,19,11.9,5.4,25.2,7.2,38.2,6,9.2-1.4,17.9-3.4,26.2-8l3-1.7c8.6-5.1,15.9-11.1,21-19.9,2.1-4,4.1-8,6-12q1.9-3.9,4.1-7.3c.8,15.6-2,30.4-9.1,44.3-6.2,11.3-13.3,19.4-24.1,26.4-15.2,8.9-31.5,13.7-49.1,13.9-21-.2-40.3-6.1-58.6-16.5-17.4-10.8-30.8-24.3-41-42-12.7-23.8-15-48.5-15-75.1v-2.5c.1-51.4,12.8-101.2,38.4-146,6.4-10.7,13.9-20.5,21.6-30.3,1.4-1.8,2.7-3.5,4.1-5.3,12.2-15.8,27.3-30.1,43.1-42.3,1.9-1.6,3.7-3.2,5.6-4.8,63-51.3,141.8-80,220.5-95.8l2.8-.6c1.7-.3,3.4-.7,5.2-1,2-.4,3.9-.8,5.9-1.3l1.1-1.1c-84.8-1.7-159.5,25.3-234.3,62.5l-3.7,1.8c-44.6,22.4-86.7,50.1-125.2,81.9-2.7,2.2-5.3,4.3-8,6.4-4.8,3.8-9.4,7.9-13.9,12.1-2.4,2.1-4.7,4.2-7.2,6.3-6,5.2-11.5,11-17.1,16.6v-3.4c1.5-2.5,3.2-4.8,4.9-7.2l1.6-2.1c9.4-12.8,19.5-25.1,29.6-37.3,2.3-2.7,4.5-5.4,6.7-8.2,4.7-5.8,9.5-11.3,14.9-16.4,2.2-2.2,4.2-4.4,6.2-6.8,4.8-5.6,10-10.8,15.2-16,1.6-1.6,3.3-3.3,4.9-4.9,5.3-5.3,10.7-10.5,16.4-15.4,2.8-2.4,5.5-5,8.2-7.5,7.7-7.2,16.1-13.4,24.5-19.7,2.8-2.1,5.5-4.2,8.2-6.4,7.3-5.7,14.8-10.8,22.5-15.9,1.4-1,2.8-1.9,4.3-2.9,31.1-20.7,65.2-36.8,100.4-49.4l2.5-.9c42.8-15.6,89.4-22.1,134.8-22"/>
  <path class="st18" d="M1450.5,1280.5l1.1,2.3q-1.3,2.9-3.3,6.5l-1.1,2c-.8,1.4-1.5,2.8-2.3,4.2-1.6,2.9-3.2,5.9-4.8,8.8l-2.4,4.4c-4.3,8-8.5,15.9-12.3,24.1l-1.3,2.7c-20.3,43.6-33.9,91.2-29.7,139.7,2.8,28.4,12.2,55.9,28.8,79.3,2.6,3.5,5.2,6.9,7.9,10.2l1.6,2c16.9,21.1,39,36.7,64,46.8,25.4,9.8,51.7,12.9,78.8,9.8,22.4-3.8,45.3-15.4,62.9-29.8l3.1-2.7,2.6-2.2c9.9-9.1,16-21,20.2-33.7,1.6-5.8,2.6-11.6,3.4-17.6h1.1c3.9,21.2,2.3,44.6-4.5,65-6,16.9-16,30.5-29.2,42.3-16.2,13-36,22.1-56.1,26.9l-2.5.6c-33.7,7.5-72.4,4-105.1-5.8-28.2-8.9-51.8-21.7-72.1-43.7-23.5-26.6-39.9-58.6-47-93.4-.7-3.7-1.3-7.5-1.9-11.2l-.4-2.5c-3.8-25.2-3-51.9.4-77.1l.3-2.5c.6-4.5,1.3-9,1.9-13.4l-1.8,1c-93.9,54.6-199.5,79.7-379.4,91.4-85.6,0-174.2-10.1-254.5-41.2v-1.1c15.6.6,31.1,1.5,46.7,2.6,4.5.3,9,.6,13.6.8l2.6.2c23.4,1.4,46.9,1.3,70.3,1.3h3.3c36.1,0,72-.6,108-3.7l3.5-.3c31.3-2.8,62.3-6.7,93.2-12.2l2.8-.5c39.8-7.1,79-16.5,117.5-29,3.5-1.2,7.1-2.3,10.7-3.4,89.4-28.8,175.4-75.6,247.1-136.4l2-1.7c1.3-1.1,2.6-2.2,3.9-3.3,2.7-2.3,5.4-4.4,8.3-6.4"/>
  <path class="st19" d="M189.3,252.5c.8,2.5,1.2,4.2.8,6.8l-.7,2.4-.8,2.8-.9,3c-.7,2.2-1.3,4.4-2,6.6l-1.1,3.5c-16.1,52.9-28.2,106.6-36.9,161.2-.4,2.6-.8,5.2-1.3,7.8-2.1,12.5-3.6,25-4.9,37.6,0,.9-.2,1.9-.3,2.9-7.9,78.9-8,158.9,4.9,237.3l.4,2.3c16.2,97.9,50.5,193.1,131.5,324.1.6.8,1.1,1.6,1.7,2.4,12.2,17.2,24.9,34,38.6,49.9,2.7,3.1,5.3,6.3,7.8,9.5,4.6,5.7,9.6,11.1,14.6,16.4,3.1,3.3,6.2,6.7,9.1,10.1,4,4.6,8.1,8.9,12.4,13.1l2.3,2.3c1.6,1.6,3.1,3.1,4.7,4.7,2.4,2.4,4.8,4.8,7.2,7.2l4.6,4.6,2.1,2.1c4.3,4.3,8.7,8.3,13.3,12.3,2.5,2.2,5,4.4,7.5,6.7,4.8,4.4,9.8,8.6,14.9,12.7,2.5,2.1,5.1,4.1,7.6,6.2,47.2,38.9,99.8,72.1,154.8,98.8,2,1,3.9,1.9,5.9,2.9,53,26.1,108.5,47.1,165.6,62.4l2.6.7c4.3,1.2,8.6,2.3,12.9,3.4l4.8,1.3,4.3,1.1q3.3,1.1,5.6,3.4c-93.5-6.8-185.2-31.9-269.5-72.8l-2.8-1.3c-4.4-2.2-8.9-4.4-13.3-6.6-2.3-1.2-4.6-2.3-6.9-3.5-15.5-7.9-30.3-17-45.1-26.1-2.9-1.8-5.9-3.6-8.8-5.4-25.3-15.4-49.4-33.4-72-52.5l-1.9-1.6c-7.6-6.5-15.2-13-22.6-19.7-1.7-1.5-3.4-3.1-5.2-4.6-9-7.9-17.5-16.5-26-25-2.6-2.6-5.2-5.2-7.8-7.8-1.7-1.7-3.4-3.4-5.1-5.1l-2.3-2.3c-5-5.1-9.8-10.3-14.5-15.8-1.6-1.8-3.2-3.6-4.8-5.3-11.8-13.1-22.5-26.7-32.9-40.8-1.9-2.5-3.7-5-5.6-7.4-19.2-25-35.8-52-50.9-79.5-1.3-2.3-2.6-4.6-3.9-6.9-26.9-47.5-47-98.8-62.2-151.1l-1.2-4.2c-13.1-45.3-21-91.9-25.3-138.8q-.4-4.7-1.3-9.3c-.6-2.7-.7-5.1-.7-7.8v-3.3s0-3.6,0-3.6v-3.8c.1-15.5.8-30.9,1.6-46.3v-2.3c1.3-23.3,2.8-46.3,6.2-69.4.4-2.4.7-4.9,1-7.3,4-28.6,9.7-56.7,16.4-84.8l.6-2.6c15.9-66.7,39.6-130.8,67.1-193.5,2.1-4.7,4.1-9.5,6.1-14.2"/>
  <path class="st5" d="M587.4,1069l3.4,1.1c1.9,3,3,6.3,4.3,9.5l1.2,2.7,1.1,2.6,1,2.4.4,2.1q-2.3,3.4-5.6,5.1c-1.4.6-2.8,1.2-4.2,1.8l-2.3,1c-2.4,1-4.8,2-7.1,3-2.4,1-4.7,2-7.1,3-1.5.6-2.9,1.3-4.4,1.9-2.8,1.2-5.5,2.4-8.2,3.8q-2,.9-4.8,1l-2.8-1.2c-1.8-2.8-3.1-5.3-4.4-8.3l-1.1-2.3c-.9-2.1-1.7-4.2-2.5-6.4q.3-2.4,1.1-4.6c2.7-1.6,5.5-2.9,8.4-4.1l2.6-1.1c2.7-1.2,5.4-2.3,8.2-3.5,1.8-.8,3.7-1.6,5.5-2.4q12.9-5.6,17.4-7.1"/>
  <path class="st7" d="M684,1030.3c1.1,2.9,2.3,5.9,3.4,8.8l1,2.5.9,2.4.9,2.2q.6,2.2.6,6.7c-5.4,2.3-10.8,4.5-16.1,6.7-1.8.8-3.7,1.5-5.5,2.3-2.6,1.1-5.3,2.2-7.9,3.3l-2.5,1c-4.5,1.8-8.6,3.1-13.5,3.7-1.4-2.9-2.7-5.9-4.1-8.8l-1.2-2.5-1.1-2.4-1-2.2q-.6-2.2-.4-4.6l.9-2.1q1.8-1.2,4.2-2.2l2.6-1.1,2.9-1.1,5.9-2.4,3-1.2c2.9-1.2,5.7-2.3,8.6-3.6l2.6-1.1c1.7-.7,3.3-1.4,4.9-2.1,3.9-1.6,6.4-2.4,10.7-2.4M778.4,995c1.2,2.9,2.3,5.9,3.5,8.8l1,2.5.9,2.4.9,2.2q.5,2.2.4,4.6l-1,2.2q-2.4,1.4-5.5,2.5l-3.5,1.3-3.7,1.3-3.8,1.4c-2.5.9-4.9,1.8-7.4,2.6-2.9,1-5.8,2.1-8.7,3.1q-10.3,3.8-12.9,3.8c-1.2-3.1-2.3-6.3-3.5-9.4l-1-2.7-.9-2.6-.9-2.4q-.5-2.3-.6-4.6l1.2-2.2c2.8-1.4,5.7-2.6,8.6-3.7l2.6-1c1.8-.7,3.7-1.3,5.5-2,2.8-1,5.6-2,8.4-3.1,1.8-.7,3.6-1.3,5.4-2l2.5-.9c4.3-1.5,7.8-2.5,12.4-2.1"/>
  <path class="st20" d="M970.6,933.6q5.9,15.2,5.7,22.7c-10.5,3.4-21,6.5-31.6,9.5l-3.3.9-3.1.8-2.8.8q-2.4.5-5.8.5c-1-2.7-1.9-5.4-2.8-8.2l-.8-2.3c-1.5-4.3-2.2-7.8-2-12.3q37.7-12.9,46.6-12.5"/>
  <path class="st22" d="M871.7,962.1l3.4,2.3q.9,2,1.6,4.5l.7,2.6.7,2.7.8,2.8c.6,2.3,1.2,4.5,1.9,6.8-3.1,3.1-6.7,3.9-10.8,5.2l-2.6.8c-1.8.6-3.6,1.2-5.3,1.7-2.7.9-5.4,1.8-8.2,2.7-1.7.6-3.5,1.1-5.2,1.7l-2.5.8c-4.2,1.3-7.8,2.2-12.2,1.8-.7-1.5-1.4-2.9-2.1-4.4l-1.2-2.5c-1.9-4.8-3.3-9.8-4.7-14.7,5.6-1.9,11.1-3.8,16.7-5.8,1.9-.7,3.8-1.3,5.7-2,2.7-.9,5.4-1.9,8.2-2.8l2.5-.9q8.8-3,12.4-3.3"/>
  <path class="st20" d="M1069.5,908.6c.8,2.9,1.5,5.9,2.3,8.8l.7,2.5c1,4,1.6,7.3,1.6,11.4-6.4,1.7-12.8,3.4-19.2,5-2.2.6-4.4,1.1-6.6,1.7-3.1.8-6.3,1.6-9.4,2.4l-3,.8-2.8.7-2.4.6h-2.1q-1.9-1.5-3.4-3.4t-1.3-4.6l-.6-2.6-.6-2.7-.6-2.7c-.5-2.2-1-4.5-1.4-6.7,3.9-2.6,7.5-3.5,12-4.5l2.5-.6c1.8-.4,3.5-.8,5.3-1.2,2.7-.6,5.4-1.3,8.1-1.9,1.7-.4,3.5-.8,5.2-1.2l2.4-.6c4.6-1,8.7-1.5,13.4-1.3"/>
  <path class="st17" d="M1168.5,887c2.2,7.6,2.9,14.9,3.4,22.7-15.3,4.5-30.9,7.3-46.6,10.2-2-5.7-3.8-11.2-4.8-17.1-.2-1.1-.4-2.1-.5-3.2l-.4-2.4c7.8-2.7,15.5-4.7,23.5-6.4l3.5-.7q15.4-3.3,21.9-3.1"/>
  <path class="st13" d="M1268.5,869.9c.4,2.1.8,4.1,1.1,6.2l.6,3.5c.4,3.2.5,6.1.5,9.4v2.8s0,2.1,0,2.1c-6.1,1-12.1,2-18.2,3-2.1.3-4.1.7-6.2,1-3,.5-5.9,1-8.9,1.4l-2.8.5c-4.3.7-7.5,1-11.7-.2-.6-2.3-1.1-4.6-1.7-7l-1-3.9c-.7-3.7-.9-7-.7-10.7,5.1-1.8,9.9-2.9,15.3-3.7l2.4-.4c1.7-.3,3.3-.5,4.9-.8,2.5-.4,5-.8,7.5-1.2q13.4-2.1,18.8-1.9"/>
  <path class="st17" d="M1342.5,859.7l2.3,2.3c1.3,7.2,1.3,14.3,1.1,21.6-8.1,1.5-15.7,2.5-23.9,2.3-.4-2.7-.8-5.4-1.1-8.2-.1-.8-.2-1.5-.3-2.3-.6-4.1-1.1-8.1-.8-12.3l1.1-1.1c3.5-.6,7.1-1,10.7-1.3l3.1-.4,2.9-.3,2.7-.3h2.2Z"/>
  <path class="st21" d="M525.9,1096.3q2.3.2,4.5,1.1t2.2,4l1.1,2.4,1.1,2.6,1.1,2.5c.9,2.2,1.7,4.5,2.5,6.7l-1.1,3.4q-2.3.8-4.5,1.1c-3.3-3.9-5.1-8.2-7-12.8l-.9-2.2c-.8-1.8-1.5-3.6-2.3-5.4q1.4-1.8,3.4-3.4"/>
  <path class="st11" d="M1353.8,858.6c1.9,0,3.8,0,5.7,0,1.4,8,2.6,15.7,2.3,23.9h-6.8c-.4-2.5-.8-5-1.1-7.5l-.6-4.2c-.4-3.7-.7-7.2-.5-11l1.1-1.1Z"/>
  <path class="st3" d="M1260.6,1200.9l1.1,2.3q-1.9,2.2-4.6,4.5t-5.7,1.1l1.1-3.4c2.5-1.8,5.2-3.1,8-4.5"/>
  <path class="st0" d="M1304.9,1174.7l2.3,1.1-5.7,5.7-3.4-2.3,6.8-4.6Z"/>
  <g>
    <text class="st6" transform="translate(271 1950.8)"><tspan x="0" y="0">CONSULTATIONS MARINE SERVICES L.L.C</tspan></text>
    <g>
      <path class="st16" d="M1073.7,1851.7l-7.8.3h-6.6c-22.6-.9-39.9-17.6-39.9-40.1l-.2-70.3c0-24.8,13.9-38.3,39.2-41,.4,0,1,0,1.3,0h7c0,0,.3,0,.3,0l5.1.3c22.4.3,39.7,17.2,39.7,39.7l-.2,73.4c0,22.5-17.6,36.6-37.9,37.9Z"/>
      <path class="st2" d="M1095.6,1776.6c0,18.7-12.1,31.8-30,31.8s-30.5-13.3-30.5-32.1,12.7-32.1,30.5-32.1,30,13.5,30,32.3Z"/>
      <path class="st4" d="M1064.6,1729.1c-24.4,0-43.7,21.1-43.7,47.2s18.4,47.1,44.5,47.1,44.5-22.7,44.5-46.9c0-26.1-18.2-47.4-45.3-47.4ZM1065.4,1821.5c-25.1,0-42.7-20.1-42.7-45.2s18.5-45.3,41.9-45.3c26,0,43.5,20.4,43.5,45.5,0,23.2-17.6,45-42.7,45Z"/>
      <path class="st4" d="M1064.9,1742.8c-16.8,0-31,15.5-31,33.5s13.5,33.5,31.5,33.5,31.6-16.5,31.6-33.1c0-18-13.4-33.8-32.1-33.8ZM1065.7,1807.5c-17.3,0-29.7-14.3-29.7-31.5s12.5-30.6,28.6-30.6,29.8,15.3,29.8,32.5c0,12.7-11.2,29.7-28.8,29.6Z"/>
      <polyline class="st8" points="1063.9 1776.2 1094.9 1807.5 1077.2 1783.9"/>
      <polyline class="st12" points="1077.2 1783.9 1128.5 1776.2 1063.9 1776.2"/>
      <polyline class="st12" points="1063.9 1776.2 1094.9 1807.5 1071.9 1790.4"/>
      <polyline class="st8" points="1071.9 1790.4 1063.7 1845.1 1063.9 1776.2"/>
      <path class="st4" d="M1130.1,1776.5"/>
      <polyline class="st8" points="1063.7 1776.2 1032.7 1745 1050.4 1768.6"/>
      <polyline class="st12" points="1050.4 1768.6 999.2 1776 1063.7 1776.2"/>
      <polyline class="st12" points="1063.7 1776.2 1032.7 1745 1055.6 1762"/>
      <polyline class="st8" points="1055.6 1762 1063.9 1707.4 1063.7 1776.2"/>
      <polyline class="st12" points="1063.7 1776.2 1094.8 1745.1 1077 1768.6"/>
      <polyline class="st8" points="1077 1768.6 1128.4 1776.2 1063.7 1776.2"/>
      <polyline class="st8" points="1063.7 1776.2 1094.8 1745.1 1071.8 1762"/>
      <polyline class="st12" points="1071.8 1762 1063.8 1707.4 1063.7 1776.2"/>
      <polyline class="st12" points="1063.9 1776.2 1032.7 1807.4 1050.5 1783.8"/>
      <polyline class="st8" points="1050.5 1783.8 999.2 1776 1063.9 1776.2"/>
      <polyline class="st8" points="1063.9 1776.2 1032.7 1807.4 1055.8 1790.4"/>
      <polyline class="st12" points="1055.8 1790.4 1063.8 1845.1 1063.9 1776.2"/>
      <path class="st15" d="M1085.7,1776c0-.3-.6-1-.9-1.1-.3,0-.6,0-.9,0l-3.6-.8c0,0,0-.2,0-.2,0-.3,0-.4,0-.6,0-.2,0-.3,0-.4,0-.1,0-.2,0-.4,0-.1,0-.2,0-.4,0-.1,0-.2,0-.4,0,0,0-.2,0-.3,0-.1,0-.2,0-.4,0,0,0-.2,0-.3,0,0,0-.2,0-.3,0,0,0,0,0-.2,0-.1,0-.2,0-.3-.6-1.5-1.5-2.8-2.4-4.1l1.9-3.2c.2-.2.6-.5.6-.7,0,0,0-.8,0-.9,0-.2-.6-.8-.8-.9,0,0-.3,0-.4,0-.1,0-.3,0-.4,0-.5,0-.8.5-1.1.8,0,0,0,0,0,.1l-3.1,1.7c-.6-.4-1.6-1.2-1.9-1.3-.7-.4-1.6-.8-2.4-1.1-.1,0-.2,0-.2,0,0,0-.2,0-.3,0,0,0-.2,0-.3,0-.1,0-.2,0-.4,0,0,0-.2,0-.3,0-.1,0-.2,0-.4,0-.1,0-.2,0-.4,0-.1,0-.2,0-.4,0-.2,0-.3,0-.5,0-.1,0-.3,0-.4,0,0,0,0,0-.1,0l-1-3.6c.1-.3.2-.6.1-.9,0,0-.7-.8-.8-.8,0,0-.9,0-1,0-.4,0-.9.9-1,1.2,0,0,0,0,0,0,0,0,0,.2,0,.3l-.9,3.7s0,0-.1,0c-.2,0-.4,0-.5,0-.2,0-.3,0-.4,0-.1,0-.2,0-.4,0-.1,0-.2,0-.4,0-.1,0-.2,0-.4,0,0,0-.2,0-.3,0-.1,0-.3,0-.4,0,0,0-.2,0-.3,0,0,0-.2,0-.3,0,0,0,0,0-.2,0-.1,0-.3.1-.4.2-.9.4-1.8.9-2.7,1.4-.2,0-.7.5-1.1.8l-3.3-1.8c-.2-.2-.5-.6-.7-.7,0,0-.2,0-.3,0-.1,0-.3,0-.4,0-.3,0-1.1.6-1.1,1,0,0,0,.8,0,.9,0,.4.5.6.8.8,0,0,0,0,0,0l1.8,3c-.3.4-.9,1.1-1,1.3-.5.8-.9,1.7-1.3,2.5,0,.1-.1.3-.2.4,0,0,0,.2,0,.2,0,0,0,.2,0,.3,0,0,0,.2,0,.3,0,0,0,.2,0,.3,0,0,0,.2,0,.3,0,.1,0,.2,0,.4,0,.1,0,.2,0,.3,0,.1,0,.3,0,.4,0,.1,0,.2,0,.4,0,.2,0,.4,0,.5,0,.2,0,.3,0,.5,0,0,0,.2,0,.3l-1.1.3s0,0-.1,0c0,0,0,0,0,0l-2,.4c-.1,0-.2-.1-.3-.1-.1,0-.8,0-.9,0-.3,0-.8.8-.9,1.1,0,0,0,.3,0,.4,0,.5.8,1.2,1.3,1.2,0,0,0,0,0,0,0,0,.2,0,.4,0,0,0,.2,0,.3-.1l3.3,1s0,0,0,0c0,.2,0,.3,0,.5,0,.2,0,.4,0,.5,0,.1,0,.3,0,.4,0,.1,0,.2,0,.4,0,0,0,.2,0,.3,0,.1,0,.2,0,.4,0,0,0,.2,0,.3,0,0,0,.2,0,.3,0,0,0,.2,0,.3,0,0,0,.2,0,.3,0,.1.1.3.2.4.3.7.8,1.6,1.1,2.2.2.3.9,1.2,1.3,1.8l-1.8,2.9s0,0,0,0c-.3.2-.8.5-.9.9,0,0,0,.7,0,.8,0,.3.7.9,1,1,0,0,.8,0,.9,0,.2,0,.4-.4.6-.7l3.3-1.9c.4.3.9.7,1.1.8.9.5,1.8,1,2.7,1.4.1,0,.3.1.4.2,0,0,.2,0,.3,0,.1,0,.2,0,.2,0,0,0,.2,0,.3,0,0,0,.2,0,.4,0,0,0,.2,0,.3,0,.1,0,.2,0,.4,0,.1,0,.2,0,.4,0,.1,0,.3,0,.4,0,.1,0,.3,0,.4,0,.2,0,.3,0,.5,0,0,0,.1,0,.2,0l.9,3.5c0,.1,0,.2-.1.2,0,.1,0,.8,0,.9,0,.1.7.8.9.8,0,0,.8,0,.9,0,.2,0,.8-.7.9-.8.1-.5,0-.8-.2-1.2l.9-3.4c0,0,.1,0,.2,0,.2,0,.4,0,.5,0,.2,0,.4,0,.5,0,.1,0,.2,0,.4,0,.2,0,.3,0,.4,0,0,0,.2,0,.3,0,.1,0,.2,0,.4,0,0,0,.2,0,.3,0,0,0,.2,0,.3,0,0,0,.2,0,.3,0,0,0,.2,0,.3,0,0,0,0,0,.2,0,1.5-.6,2.9-1.6,4.3-2.5l2.9,1.8c0,0,0,.2,0,.2.2.2.6.6.8.7,0,0,.8,0,.9,0,.2,0,.8-.7.9-.9,0,0,0-.9,0-1,0-.3-.7-.6-.9-.8l-1.7-3c.3-.4.7-.8.8-1,.6-.9,1.2-2,1.6-3,0,0,0-.2,0-.2,0,0,0-.2,0-.3,0,0,0-.2,0-.3,0,0,0-.2,0-.3,0,0,0-.2,0-.3,0-.1,0-.2,0-.4,0-.1,0-.2,0-.3,0-.1,0-.2,0-.4,0-.1,0-.3,0-.4,0-.1,0-.3,0-.4,0-.2,0-.3,0-.5,0,0,0,0,0,0l3.7-1.1c.3,0,.5.2.8,0,.2,0,.8-.7.9-1,0-.1,0-.5,0-.6ZM1076.9,1777.9c0,.2,0,.4,0,.6,0,.1,0,.3,0,.4,0,0,0,.2,0,.4,0,.1,0,.2,0,.4,0,0,0,.2,0,.3,0,0,0,.2,0,.3,0,0,0,.2,0,.3,0,0,0,.2,0,.3,0,.1-.1.3-.2.4-.2.3-1.1,2.1-1.7,2.9l-5-4.5c.1-.2.3-.5.4-.8,0,0,0-.2,0-.3,0-.1,0-.2,0-.3,0-.1,0-.2,0-.3,0,0,0-.1,0-.2h6.9s0,0,0,0ZM1076.9,1774.7l-6.9-.2s0,0,0,0c0-.1,0-.2,0-.3,0,0,0-.1,0-.3-.1-.3-.2-.7-.4-1l4.7-4.7c.9,1.1,1.7,2.5,2.2,3.9,0,0,0,.2,0,.3,0,0,0,.2,0,.3,0,.1,0,.2,0,.3,0,.1,0,.2,0,.4,0,.1,0,.3,0,.4,0,.2,0,.4,0,.5,0,.2,0,.4,0,.5,0,0,0,0,0,0ZM1066.5,1763.4c0,0,.2,0,.4,0,.1,0,.2,0,.4,0,.1,0,.2,0,.4,0,0,0,.2,0,.3,0,0,0,.2,0,.3,0,0,0,.2,0,.3,0,1.3.5,2.4,1.3,3.6,2.1l-5,4.6c-.2,0-.4-.1-.6-.2,0,0-.1,0-.2,0-.1,0-.2,0-.3,0-.1,0-.2,0-.3,0,0,0-.1,0-.2,0l.3-6.9c.1,0,.3,0,.4,0,.1,0,.3,0,.4,0ZM1059.2,1764c0,0,.2,0,.3,0,.1,0,.2,0,.2,0,0,0,.2,0,.3,0,.1,0,.2,0,.4,0,0,0,.2,0,.3,0,.1,0,.2,0,.4,0,.1,0,.3,0,.4,0,.2,0,.3,0,.5,0,.2,0,.5,0,.5,0,0,0,0,0,0,0v6.9c0,0-.2,0-.2,0,0,0-.1,0-.3,0,0,0-.1,0-.3,0-.2,0-.3.1-.5.2l-5.1-4.6c.8-.7,2.8-1.7,3.2-1.9ZM1051.2,1773s0-.2,0-.3c0-.1,0-.2,0-.4,0,0,0-.2,0-.3,0,0,0-.2,0-.3,0-.1.1-.3.2-.4.2-.4,1.2-2.4,1.9-3.1l4.9,4.1.2.2c-.4.4-.5.9-.7,1.5,0,.1,0,.2,0,.3,0,.1,0,.2,0,.3,0,0,0,.2,0,.2l-6.8-.2c0-.1,0-.2,0-.3,0,0,0-.3,0-.4,0-.1,0-.3,0-.4,0,0,0-.2,0-.4ZM1057.7,1777.8c0,0,0,.1,0,.2,0,0,0,.1,0,.3,0,0,0,.1,0,.3,0,.2.3.7.5,1.1l-4.9,4.6c-.7-.8-1.8-2.9-1.9-3.3,0,0,0-.2,0-.3,0,0,0-.2,0-.3,0,0,0-.2,0-.3,0,0,0-.2,0-.3,0-.1,0-.2,0-.4,0-.1,0-.2,0-.4,0-.1,0-.3,0-.4,0-.2,0-.4,0-.5,0,0,0-.3,0-.4h6.9ZM1060.8,1789s-.2,0-.3,0c-.1,0-.2,0-.4,0,0,0-.2,0-.3,0,0,0-.2,0-.3,0,0,0-.2,0-.3,0,0,0,0,0-.2,0-.1,0-.2,0-.3,0-1.1-.5-2-1.2-3-1.8l4.8-4.8c.3.1.6.2.9.4.1,0,.2,0,.3,0,.2,0,.3,0,.4,0,0,0,.1,0,.2,0v6.9c0,0-.1,0-.2,0-.2,0-.4,0-.5,0-.1,0-.3,0-.4,0-.1,0-.3,0-.4,0ZM1068.3,1788.5c0,0-.2,0-.3,0,0,0-.2,0-.3,0,0,0-.2,0-.3,0-.1,0-.2,0-.4,0-.1,0-.2,0-.4,0-.1,0-.3,0-.4,0-.1,0-.3,0-.4,0-.2,0-.4,0-.6,0,0,0,0,0,0,0l.3-7c0,0,.1,0,.2,0,0,0,.1,0,.3,0,.2,0,.5-.2.7-.3l5.3,4.4c-1.2.8-2.4,1.7-3.8,2.3Z"/>
      <path class="st4" d="M1064.5,1773.2s.3,0,.4,0c.7.2,1.5,1.2,1.8,1.8,0,.1,0,.2,0,.3,0,.3,0,.9,0,1.2s0,.1,0,.3c-.2.6-1.1,1.6-1.8,1.8s-.3,0-.3,0c-.2,0-1.1,0-1.3,0s-.3,0-.4,0c-.5-.2-1.6-1.2-1.8-1.8s0-.3,0-.4c0-.2,0-1,0-1.2s0-.3,0-.4c.1-.5,1.1-1.5,1.6-1.7s.2,0,.3,0c.1,0,.2,0,.3,0,.2,0,1,0,1.2,0Z"/>
    </g>
    <rect class="st10" x="585.5" y="1701.8" width="31.8" height="148.5"/>
    <polygon class="st10" points="788.4 1702.9 820 1702.9 820 1817.6 860.4 1817.6 860.4 1847.8 789 1847.8 788.4 1702.9"/>
    <polygon class="st10" points="1309.1 1847.5 1340.5 1847.5 1340.5 1730.8 1370.9 1730.8 1370.9 1703.1 1279.4 1703.1 1279.4 1731.7 1308.4 1731.4 1309.1 1847.5"/>
    <path class="st10" d="M379.4,1702.5h-53.1v144.8h31.2l.2-50.9s60.9,6.6,60.9-43.5c0-51.5-39.2-50.5-39.2-50.5ZM375.7,1767.2c-1.8.4-17.5.2-17.5.2v-35.6s16.9-.1,19,.2c2.1.4,13.2,4.7,12.7,17.5-.5,12.8-12.4,17.2-14.2,17.6Z"/>
  </g>
</svg>