<?xml version="1.0" encoding="UTF-8"?>
<svg id="Layer_1" xmlns="http://www.w3.org/2000/svg" version="1.1" viewBox="0 0 327.2 78.2">
  <!-- Generator: Adobe Illustrator 29.7.1, SVG Export Plug-In . SVG Version: 2.1.1 Build 8)  -->
  <defs>
    <style>
      .st0 {
        fill: #0188dd;
        font-family: Poppins-Light, Poppins;
        font-size: 13.9px;
        font-weight: 300;
        letter-spacing: .1em;
      }

      .st1 {
        fill: #14587b;
      }

      .st2 {
        fill: #fff;
      }

      .st3 {
        fill: #1896c7;
      }

      .st4 {
        fill: #1c326c;
      }

      .st5 {
        fill: #f0fbfe;
      }

      .st6 {
        fill: #1c7391;
      }

      .st7 {
        fill: #11316a;
      }
    </style>
  </defs>
  <text class="st0" transform="translate(2.8 75.9)"><tspan x="0" y="0">CONSULTATIONS MARINE SERVICES L.L.C</tspan></text>
  <g>
    <path class="st7" d="M229.8,47.9h-2.2c0,0-1.9,0-1.9,0-6.4-.2-11.3-5-11.3-11.3v-19.9c0-7,3.9-10.8,11-11.6.1,0,.3,0,.4,0h2s0,0,0,0h1.4c6.3.2,11.2,4.9,11.2,11.3v20.7c0,6.4-5,10.3-10.8,10.7Z"/>
    <path class="st1" d="M236,26.6c0,5.3-3.4,9-8.5,9s-8.6-3.8-8.6-9.1,3.6-9.1,8.6-9.1,8.5,3.8,8.5,9.1Z"/>
    <path class="st2" d="M227.2,13.2c-6.9,0-12.4,6-12.4,13.3s5.2,13.3,12.6,13.3,12.6-6.4,12.6-13.3c0-7.4-5.2-13.4-12.8-13.4ZM227.4,39.3c-7.1,0-12.1-5.7-12.1-12.8s5.2-12.8,11.9-12.8c7.4,0,12.3,5.8,12.3,12.9,0,6.6-5,12.7-12.1,12.7Z"/>
    <path class="st2" d="M227.3,17.1c-4.7,0-8.8,4.4-8.8,9.5s3.8,9.5,8.9,9.5,8.9-4.7,8.9-9.4c0-5.1-3.8-9.6-9.1-9.6ZM227.5,35.4c-4.9,0-8.4-4-8.4-8.9s3.5-8.6,8.1-8.6,8.4,4.3,8.4,9.2-3.2,8.4-8.1,8.4Z"/>
    <polyline class="st3" points="227 26.5 235.7 35.4 230.7 28.7"/>
    <polyline class="st5" points="230.7 28.7 245.3 26.5 227 26.5"/>
    <polyline class="st5" points="227 26.5 235.7 35.4 229.2 30.5"/>
    <polyline class="st3" points="229.2 30.5 226.9 46 227 26.5"/>
    <path class="st2" d="M245.7,26.6"/>
    <polyline class="st3" points="226.9 26.5 218.2 17.7 223.2 24.4"/>
    <polyline class="st5" points="223.2 24.4 208.7 26.5 226.9 26.5"/>
    <polyline class="st5" points="226.9 26.5 218.2 17.7 224.6 22.5"/>
    <polyline class="st3" points="224.6 22.5 227 7.1 226.9 26.5"/>
    <polyline class="st5" points="226.9 26.5 235.7 17.7 230.7 24.4"/>
    <polyline class="st3" points="230.7 24.4 245.2 26.5 226.9 26.5"/>
    <polyline class="st3" points="226.9 26.5 235.7 17.7 229.2 22.5"/>
    <polyline class="st5" points="229.2 22.5 226.9 7.1 226.9 26.5"/>
    <polyline class="st5" points="227 26.5 218.2 35.3 223.2 28.7"/>
    <polyline class="st3" points="223.2 28.7 208.7 26.5 227 26.5"/>
    <polyline class="st3" points="227 26.5 218.2 35.3 224.7 30.5"/>
    <polyline class="st5" points="224.7 30.5 227 46 227 26.5"/>
    <path class="st6" d="M233.2,26.5c0,0-.2-.3-.2-.3,0,0-.2,0-.2,0l-1-.2s0,0,0,0c0,0,0-.1,0-.2,0,0,0,0,0-.1,0,0,0,0,0,0,0,0,0,0,0,0,0,0,0,0,0,0,0,0,0,0,0,0,0,0,0,0,0,0,0,0,0,0,0,0,0,0,0,0,0,0,0,0,0,0,0,0,0,0,0,0,0,0-.2-.4-.4-.8-.7-1.2l.5-.9c0,0,.2-.1.2-.2,0,0,0-.2,0-.2,0,0-.2-.2-.2-.2,0,0,0,0,0,0,0,0,0,0,0,0-.1,0-.2.1-.3.2,0,0,0,0,0,0l-.9.5c-.2-.1-.4-.3-.5-.4-.2-.1-.5-.2-.7-.3,0,0,0,0,0,0,0,0,0,0,0,0,0,0,0,0,0,0,0,0,0,0,0,0,0,0,0,0,0,0,0,0,0,0,0,0,0,0,0,0,0,0,0,0,0,0,0,0,0,0,0,0-.1,0,0,0,0,0-.1,0,0,0,0,0,0,0l-.3-1c0,0,0-.2,0-.3,0,0-.2-.2-.2-.2,0,0-.3,0-.3,0-.1,0-.3.2-.3.3,0,0,0,0,0,0,0,0,0,0,0,0l-.3,1.1s0,0,0,0c0,0-.1,0-.1,0,0,0,0,0-.1,0,0,0,0,0,0,0,0,0,0,0,0,0,0,0,0,0,0,0,0,0,0,0,0,0,0,0,0,0,0,0,0,0,0,0,0,0,0,0,0,0,0,0,0,0,0,0,0,0,0,0,0,0-.1,0-.3.1-.5.3-.8.4,0,0-.2.1-.3.2l-.9-.5c0,0-.1-.2-.2-.2,0,0,0,0,0,0,0,0,0,0-.1,0,0,0-.3.2-.3.3,0,0,0,.2,0,.2,0,.1.2.2.2.2,0,0,0,0,0,0l.5.8c0,.1-.3.3-.3.4-.1.2-.3.5-.4.7,0,0,0,0,0,.1,0,0,0,0,0,0,0,0,0,0,0,0,0,0,0,0,0,0,0,0,0,0,0,0,0,0,0,0,0,0,0,0,0,0,0,0,0,0,0,0,0,0,0,0,0,0,0,.1,0,0,0,0,0,0,0,0,0,0,0,.1,0,0,0,0,0,.1,0,0,0,0,0,0h-.3c0,0,0,0,0,0,0,0,0,0,0,0h-.6c0,.1,0,0,0,0,0,0-.2,0-.2,0,0,0-.2.2-.2.3,0,0,0,0,0,0,0,.2.2.3.4.3,0,0,0,0,0,0,0,0,0,0,0,0,0,0,0,0,0,0l.9.3s0,0,0,0c0,0,0,0,0,.1,0,0,0,.1,0,.1,0,0,0,0,0,.1,0,0,0,0,0,0,0,0,0,0,0,0,0,0,0,0,0,0,0,0,0,0,0,0,0,0,0,0,0,0,0,0,0,0,0,0,0,0,0,0,0,0,0,0,0,0,0,.1,0,.2.2.4.3.6,0,0,.3.3.4.5l-.5.8s0,0,0,0c0,0-.2.1-.2.2,0,0,0,.2,0,.2,0,0,.2.3.3.3,0,0,.2,0,.2,0,0,0,.1-.1.2-.2l.9-.5c.1,0,.3.2.3.2.2.1.5.3.8.4,0,0,0,0,.1,0,0,0,0,0,0,0,0,0,0,0,0,0,0,0,0,0,0,0,0,0,0,0,0,0,0,0,0,0,0,0,0,0,0,0,0,0,0,0,0,0,0,0,0,0,0,0,.1,0,0,0,0,0,.1,0,0,0,0,0,.1,0,0,0,0,0,0,0l.2,1s0,0,0,0c0,0,0,.2,0,.2,0,0,.2.2.2.2,0,0,.2,0,.2,0,0,0,.2-.2.2-.2,0-.1,0-.2,0-.3l.3-1s0,0,0,0c0,0,.1,0,.1,0,0,0,.1,0,.1,0,0,0,0,0,0,0,0,0,0,0,.1,0,0,0,0,0,0,0,0,0,0,0,0,0,0,0,0,0,0,0,0,0,0,0,0,0,0,0,0,0,0,0,0,0,0,0,0,0,0,0,0,0,0,0,.4-.2.8-.4,1.2-.7l.8.5s0,0,0,0c0,0,.2.2.2.2,0,0,.2,0,.2,0,0,0,.2-.2.2-.2,0,0,0-.3,0-.3,0,0-.2-.2-.2-.2l-.5-.9c0-.1.2-.2.2-.3.2-.3.3-.6.4-.9,0,0,0,0,0,0,0,0,0,0,0,0,0,0,0,0,0,0,0,0,0,0,0,0,0,0,0,0,0,0,0,0,0,0,0,0,0,0,0,0,0,0,0,0,0,0,0,0,0,0,0,0,0-.1,0,0,0,0,0-.1,0,0,0,0,0-.1,0,0,0,0,0,0l1-.3c0,0,.1,0,.2,0,0,0,.2-.2.2-.3,0,0,0-.1,0-.2ZM230.6,27c0,0,0,.1,0,.2,0,0,0,0,0,.1,0,0,0,0,0,0,0,0,0,0,0,0,0,0,0,0,0,0,0,0,0,0,0,0,0,0,0,0,0,0,0,0,0,0,0,0,0,0,0,0,0,.1,0,0-.3.6-.5.8l-1.4-1.3c0,0,0-.1.1-.2,0,0,0,0,0,0,0,0,0,0,0,0,0,0,0,0,0,0,0,0,0,0,0,0h2s0,0,0,0ZM230.6,26.1h-2c0,0,0,0,0,0,0,0,0,0,0,0,0,0,0,0,0,0,0,0,0-.2-.1-.3l1.3-1.3c.3.3.5.7.6,1.1,0,0,0,0,0,0,0,0,0,0,0,0,0,0,0,0,0,0,0,0,0,0,0,0,0,0,0,0,0,0,0,0,0,.1,0,.1,0,0,0,.1,0,.1,0,0,0,0,0,0ZM227.7,22.9s0,0,0,0c0,0,0,0,0,0,0,0,0,0,0,0,0,0,0,0,0,0,0,0,0,0,0,0,0,0,0,0,0,0,.4.1.7.4,1,.6l-1.4,1.3c0,0-.1,0-.2,0,0,0,0,0,0,0,0,0,0,0,0,0,0,0,0,0,0,0,0,0,0,0,0,0v-1.9c.1,0,.1,0,.2,0,0,0,0,0,.1,0ZM225.7,23.1s0,0,0,0c0,0,0,0,0,0,0,0,0,0,0,0,0,0,0,0,0,0,0,0,0,0,0,0,0,0,0,0,0,0,0,0,0,0,0,0,0,0,0,0,.1,0,0,0,.1,0,.1,0,0,0,0,0,0,0v1.9s0,0,0,0c0,0,0,0,0,0,0,0,0,0,0,0,0,0,0,0-.1,0l-1.5-1.3c.2-.2.8-.5.9-.5ZM223.4,25.6s0,0,0,0c0,0,0,0,0,0,0,0,0,0,0,0,0,0,0,0,0,0,0,0,0,0,0-.1,0-.1.4-.7.5-.9l1.4,1.2h0c-.1.2-.1.3-.2.5,0,0,0,0,0,0,0,0,0,0,0,0,0,0,0,0,0,0h-1.9c0,0,0-.1,0-.1,0,0,0,0,0-.1,0,0,0,0,0-.1,0,0,0,0,0,0ZM225.2,27s0,0,0,0c0,0,0,0,0,0,0,0,0,0,0,0,0,0,0,.2.1.3l-1.4,1.3c-.2-.2-.5-.8-.5-.9,0,0,0,0,0,0,0,0,0,0,0,0,0,0,0,0,0,0,0,0,0,0,0,0,0,0,0,0,0,0,0,0,0,0,0,0,0,0,0,0,0,0,0,0,0-.1,0-.1,0,0,0,0,0-.1h1.9ZM226.1,30.1s0,0,0,0c0,0,0,0,0,0,0,0,0,0,0,0,0,0,0,0,0,0,0,0,0,0,0,0,0,0,0,0,0,0,0,0,0,0,0,0-.3-.1-.6-.3-.9-.5l1.4-1.4c0,0,.2,0,.2.1,0,0,0,0,0,0,0,0,0,0,0,0,0,0,0,0,0,0v2s0,0,0,0c0,0-.1,0-.1,0,0,0,0,0-.1,0,0,0,0,0-.1,0ZM228.2,30s0,0,0,0c0,0,0,0,0,0,0,0,0,0,0,0,0,0,0,0,0,0,0,0,0,0,0,0,0,0,0,0,0,0,0,0,0,0-.1,0,0,0-.1,0-.2,0,0,0,0,0,0,0v-2c0,0,.1,0,.1,0,0,0,0,0,0,0,0,0,.1,0,.2,0l1.5,1.3c-.3.2-.7.5-1.1.6Z"/>
    <path class="st2" d="M227.1,25.7s0,0,0,0c.2,0,.4.3.5.5,0,0,0,0,0,0,0,0,0,.3,0,.3s0,0,0,0c0,.2-.3.5-.5.5s0,0,0,0c0,0-.3,0-.4,0s0,0,0,0c-.2,0-.5-.3-.5-.5s0,0,0,0c0,0,0-.3,0-.3s0,0,0,0c0-.1.3-.4.4-.5s0,0,0,0c0,0,0,0,0,0,0,0,.3,0,.3,0Z"/>
  </g>
  <rect class="st4" x="91.7" y="5.5" width="9" height="42"/>
  <polygon class="st4" points="149.1 5.8 158 5.8 158 38.2 169.4 38.2 169.4 46.8 149.3 46.8 149.1 5.8"/>
  <polygon class="st4" points="296.3 46.7 305.2 46.7 305.2 13.7 313.8 13.7 313.8 5.9 287.9 5.9 287.9 13.9 296.1 13.9 296.3 46.7"/>
  <path class="st4" d="M33.5,5.7h-15v40.9h8.8v-14.4s17.3,1.9,17.3-12.3c0-14.6-11.1-14.3-11.1-14.3ZM32.4,24c-.5.1-5,0-5,0v-10.1s4.8,0,5.4,0c.6.1,3.7,1.3,3.6,4.9-.1,3.6-3.5,4.9-4,5Z"/>
</svg>