<?xml version="1.0" encoding="UTF-8"?>
<svg id="Layer_1" xmlns="http://www.w3.org/2000/svg" version="1.1" viewBox="0 0 2048 2007">
  <!-- Generator: Adobe Illustrator 29.7.1, SVG Export Plug-In . SVG Version: 2.1.1 Build 8)  -->
  <defs>
    <style>
      .st0 {
        fill: #6085ae;
      }

      .st1 {
        fill: #7c7c7c;
      }

      .st2 {
        fill: #5782ad;
      }

      .st3 {
        fill: #bababa;
      }

      .st4 {
        fill: #fff;
      }

      .st5 {
        fill: #9b9b9b;
      }

      .st6 {
        fill: #efefef;
      }
    </style>
  </defs>
  <path class="st4" d="M1557,838.7h2.4c105.9,1,177.8,11.1,215.8,30.1-.7,5-2.6,9.1-4.9,13.5l-1.2,2.3c-1.3,2.4-2.4,5-3.7,7.4l-1.3,2.5c-6.8,13.5-13.9,26.8-21.5,39.8-1.8,3-3.5,6.1-5.3,9.1-9.7,16.8-19.7,33.3-30.4,49.4-1.6,2.3-3.2,4.8-4.8,7.1-7.6,11.7-15.7,23.1-23.8,34.5l-1.9,2.6c-12.5,17.6-25.8,34.6-39.5,51.3-2.6,3.2-5.2,6.4-7.7,9.7-5.2,6.5-10.6,12.7-16.1,19-1.7,2-3.3,3.9-5,5.9-7.9,9.4-16.4,18.5-24.8,27.4-1.9,2-3.6,3.9-5.4,5.9-9.3,10.2-19,20-28.8,29.7l-2.2,2.2c-9.1,9.1-15.9,15.7-20.6,19.6-3.4,2.9-6.8,6.2-10.1,9.3-5.7,5.4-11.5,10.5-17.6,15.4-3.8,3.1-7.6,6.5-11.4,9.7-7.1,6.3-14.5,12.1-22,18-2.3,1.8-4.6,3.5-6.9,5.4-16.5,13-33.6,25.4-51.1,37.2-2,1.4-3.9,2.6-5.9,4-21.7,14.8-44.5,28.1-67.5,40.8l-3.4,1.9c-86.7,47.9-180.8,79.5-383.6,108.6h-2.4c-10.9.8-21.6,1-32.5.9,3.9-2.6,7.8-3.6,12.2-4.9l5.6-1.6,2.9-.9c20.9-6,41.4-12.4,61.9-19.5,4.2-1.5,8.3-2.8,12.5-4.2,31.4-10.2,62.4-22.1,92.9-34.8l3.5-1.5c42.6-17.5,84.9-36.4,125.3-58.5,2.7-1.5,5.4-2.9,8.1-4.4,15.4-8.2,30.4-17,45.2-25.9,3.4-2.1,6.9-4.1,10.3-6.2,15.6-9.3,30.6-19.3,45.6-29.5l2.5-1.8c24.2-16.4,47.5-33.8,70.1-52.3,1.8-1.5,3.5-2.8,5.3-4.3,11.8-9.6,23.4-19.5,34.7-30,2.4-2.3,5-4.5,7.5-6.8,11.3-9.8,21.9-20.2,32.4-30.6l2.6-2.6c4.6-4.6,9-9.3,13.2-14.2,3.4-3.9,7-7.6,10.7-11.5,5.8-6.2,11.4-12.2,16.6-18.9,2.9-3.6,6-7.1,9-10.6,6-7,11.7-14,17.3-21.3,1.3-1.7,2.5-3.2,3.8-4.9,9.9-12.7,19.4-25.7,28.3-39.1,2.1-3.1,4.2-6.2,6.3-9.3,14.5-21.5,28.1-43.5,40.7-66.2,1.7-3,3.4-6.1,5.1-9.1l3.1-5.5,1.5-2.5c1.5-2.2,2.6-4.6,3.2-7-16.7-1.8-33.6-3.4-50.4-4.6l-3.7-.3c-4.2-.3-8.5-.5-12.7-.7l-2.8-.2c-22.8-1.2-45.7-1.2-68.5-1.2h-2.9c-69.8,0-139.2,4.3-208.4,13.6l-3.1.4c-74.6,10-148.5,24.2-221.8,41.9l-3.8.9c-33.8,8.2-67.4,17.1-100.7,26.7l-2.3.7c-19.2,5.6-38.4,11.3-57.5,17.2-7,2.2-14.1,4.4-21.2,6.5-16.6,5.1-33.1,10.6-49.5,16.2-3.7,1.3-7.4,2.4-11.1,3.7-25.4,8.5-50.5,17.3-75.6,26.4l-3.9,1.4c-15.3,5.6-30.4,11.3-45.6,17-3,1.2-6.1,2.3-9.1,3.5-36.8,14-73.4,28.2-109.8,43.5-8.1,3.4-16.3,6.8-24.4,10.1-13.6,5.6-27.1,11.3-40.7,16.9l-2.3,1-6.5,2.7-2.1.9c-3.8,1.7-7.5,3.2-11.4,5l-2.4,1.1c-1.6.7-3.1,1.5-4.7,2.2-1.9.8-3.7,1.6-5.7,2.3l-2.3-1.1c17.2-10.4,34.8-20.4,52.3-30.1l3-1.7c29.3-16.2,58.8-31.7,88.8-46.5,9.5-4.7,19-9.5,28.5-14.3,18.2-9.2,36.4-18.1,55-26.5,4-1.9,8-3.7,12-5.7,9.4-4.5,19-8.7,28.6-12.9,6.6-2.8,13-5.8,19.4-8.8,8.3-3.9,16.7-7.5,25.2-11.1l2.3-1c33.5-14.2,67.3-27.8,101.1-41,2.2-.9,4.3-1.7,6.5-2.5,37.7-14.7,76-28,114.4-40.5,3.7-1.2,7.3-2.4,11.1-3.6,46.1-15.2,92.8-28.2,139.9-39.9l6.5-1.7c33.3-8.3,66.7-15.5,100.4-21.7l3.3-.6c32.9-6.2,65.9-11.1,99.1-15,.9,0,1.9-.2,2.8-.3,56.9-6.7,113.7-9.1,170.9-8.6"/>
  <path class="st1" d="M297.7,224.2c0,2.2-.5,4.2-1.4,5.9l-1.9,3-2.2,3.4-2.3,3.7c-1.7,2.6-3.3,5.3-4.9,7.9l-1.3,2.1c-4.7,7.5-9.2,15.2-13.6,22.8l-1.2,2.1c-2.6,4.6-5.3,9.1-8,13.7l-2,3.3c-3.8,6.7-7.6,13.3-11.5,20.1l-1.6,2.8c-15.4,27.3-28.2,55.8-38.3,85.4-1.3,5-2.7,9.9-4.3,14.8-5.1,16-9.4,32.1-13.4,48.5-1.1,4.2-2.2,8.4-3.1,12.7-6.5,25.8-12.1,51.9-16.4,78.2l-.8,4.8c-.7,4-1.3,8-2,12-.4,2.5-.8,5.1-1.3,7.6-2.1,12.2-3.5,24.5-4.8,36.8,0,.9-.2,1.9-.3,2.8-7.7,77.3-7.8,155.6,4.8,232.3l.4,2.3c15.9,95.9,49.4,189.1,128.8,317.3.6.8,1.1,1.6,1.7,2.3,11.9,16.8,24.4,33.3,37.8,48.9,2.6,3,5.2,6.2,7.6,9.3,4.5,5.6,9.4,10.9,14.3,16.1,3,3.2,6.1,6.6,8.9,9.9,3.9,4.5,7.9,8.7,12.1,12.8l2.3,2.3c1.6,1.6,3,3,4.6,4.6,2.3,2.3,4.7,4.7,7,7l4.5,4.5,2.1,2.1c4.2,4.2,8.5,8.1,13,12,2.4,2.2,4.9,4.3,7.3,6.6,4.7,4.3,9.6,8.4,14.6,12.4,2.4,2.1,5,4,7.4,6.1,46.2,38.1,97.7,70.6,151.6,96.7,2,1,3.8,1.9,5.8,2.8,51.9,25.6,106.2,46.1,162.1,61.1l2.5.7c4.2,1.2,8.4,2.3,12.6,3.3l4.7,1.3,4.2,1.1c2.2.7,4,1.8,5.5,3.3-91.5-6.7-181.3-31.2-263.9-71.3l-2.7-1.3c-4.3-2.2-8.7-4.3-13-6.5-2.3-1.2-4.5-2.3-6.8-3.4-15.2-7.7-29.7-16.6-44.2-25.6-2.8-1.8-5.8-3.5-8.6-5.3-24.8-15.1-48.4-32.7-70.5-51.4l-1.9-1.6c-7.4-6.4-14.9-12.7-22.1-19.3-1.7-1.5-3.3-3-5.1-4.5-8.8-7.7-17.1-16.2-25.5-24.5-2.5-2.5-5.1-5.1-7.6-7.6-1.7-1.7-3.3-3.3-5-5l-2.3-2.3c-4.9-5-9.6-10.1-14.2-15.5-1.6-1.8-3.1-3.5-4.7-5.2-11.6-12.8-22-26.1-32.2-39.9-1.9-2.4-3.6-4.9-5.5-7.2-18.8-24.5-35.1-50.9-49.8-77.8-1.3-2.3-2.5-4.5-3.8-6.8-26.3-46.5-46-96.7-60.9-147.9l-1.2-4.1c-13.5-46.7-21-94.6-25.6-142.9-1.7,96.9,22.2,198.7,60.9,287.4,1.5,3.3,2.9,6.8,4.3,10.1,6.7,15.3,13.8,30.3,21.2,45.2l1.4,2.7c5.8,11.7,12.1,23.2,19.1,34.4,1.2,2,2.3,3.9,3.5,5.9,6.3,10.6,12.7,21,19.7,31,1.4,2,2.6,4,4,6.1,14.4,21.9,30.3,42.7,46.9,63,1.5,1.9,2.9,3.6,4.4,5.5,5.1,6.3,10.4,12.3,15.9,18.2,2.1,2.3,4.2,4.6,6.2,7,10.4,11.8,21.3,23.1,32.4,34.3l3.1,3.1c5.1,5.1,10.2,10,15.6,14.6,3.1,2.6,6.1,5.5,9,8.2,5.3,5,10.9,9.7,16.4,14.2,3,2.4,6,5,8.9,7.5,7.2,6.3,14.6,12.2,22.2,18,2.4,1.9,4.8,3.6,7.2,5.5,52.8,40,110.1,75.7,170.2,103.4,3.6,1.7,7.1,3.4,10.7,5.2l-3.3,1.1c-1.7-.3-3.6-.8-5.7-1.5l-3.4-1.1-3.7-1.2-3.9-1.3c-4-1.3-8.1-2.6-12.1-3.9l-3.6-1.2c-31.6-10.3-62.3-23.4-92.1-37.8l-3.2-1.6c-16.1-7.7-31.5-16.3-46.9-25.2l-2.8-1.7c-29.9-17.3-57.8-37.4-85.1-58.5l-2.3-1.9c-8.4-6.5-16.5-13.2-24.4-20.5-1.5-1.3-2.9-2.6-4.4-3.9-4.2-3.7-8.4-7.4-12.6-11.3-1.6-1.5-3.2-2.8-4.9-4.3-6.4-5.5-12.3-11.3-18.2-17.2-1.7-1.7-3.3-3.3-5.1-5.1-5.3-5.3-10.6-10.7-15.5-16.4-2.8-3.3-5.9-6.5-8.8-9.6-5.2-5.6-10.2-11.3-14.9-17.1-2.3-2.7-4.5-5.5-6.9-8.1-7.5-8.7-14.4-17.9-21.2-27.2l-1.8-2.3c-14-19-27.4-38.6-39.5-58.9l-2.5-4.2c-40.1-67.1-69.2-139.3-87.6-215.1l-.6-2.3c-13.4-55.5-20-112.4-19.8-169.5v-11.5c0-27.6,1.2-55.2,4.4-82.7l.3-2.3c11.2-94.7,37.9-190.3,81.5-275.3,1.9-3.6,3.5-7.2,5.2-10.9,5.8-12.5,12.4-24.7,19.2-36.7l1.7-2.9c11.4-20.3,23.1-40.2,36.2-59.4,1.3-2,2.6-3.9,3.9-5.9,12.3-18.4,25.2-36.4,38.7-53.9,1.7-2.3,3.4-4.4,5.1-6.7,5.6-7.3,11.4-14.4,17.2-21.3,2.7-3.1,5.4-6.5,7.9-9.7,5.5-6.8,11.4-13.1,17.2-19.4"/>
  <path class="st6" d="M800.5,753c58-.7,115.4,2.1,173.1,7.8l2.8.3c64.7,6.5,128.9,19.5,192,35.3l2.3.6c19.5,4.9,38.8,10.5,58,16.3l3.3,1c15,4.4,29.8,9.3,44.4,14.5v2.3l-3.5.9-2.3.6-20.9,5.5c-10.8,2.8-21.5,5.7-32.3,8.4-67.5,17.6-134.5,37.1-200.6,59.5-3.6,1.3-7.2,2.4-11,3.7-81.7,27.4-162.8,57.6-241.5,92.7l-3.6,1.6c-8.1,3.6-16.3,7.2-24.4,11-2.9,1.3-5.8,2.6-8.7,3.9-21.7,9.7-43.2,19.9-64.6,30.4-4.7,2.3-9.5,4.6-14.3,6.9-16.3,7.6-32.1,16-47.9,24.6-5.2,2.7-10.4,5.5-15.7,8.2-11.4,5.9-22.5,12.1-33.6,18.5-2.3,1.3-4.5,2.6-6.9,3.9-21.2,12.1-42.2,24.7-63.1,37.6l-2.8,1.8c-1.8,1.1-3.4,2.2-5.1,3.2-1.9,1.2-3.8,2.3-5.8,3.4h-2.3c1.8-4.4,4.8-7.5,8-11l3.7-3.9,2-2.1c1.8-1.9,3.4-3.7,5.1-5.6,9.2-10.1,18.7-19.7,28.3-29.3l2.1-2.1c8.8-8.8,15.5-15.2,20.1-19.1,3.1-2.6,6.1-5.4,9-8.1l3.8-3.5,1.9-1.8c7-6.6,14.2-12.8,21.7-18.9,2.4-2,4.9-4,7.3-6.1,29.5-24.3,60.7-46.4,92.9-66.9l2.2-1.4c21.1-13.4,42.6-25.8,64.6-37.6l3.6-2c82.6-43.8,171.5-77.4,283.6-99.4v-2.3l-2.3-.9c-2.4-1-4.9-2.1-7.3-3.1-91.9-41.3-208-42.8-450.3-48.3,20.4-11.2,50.6-12.9,73.5-16.7l3.7-.6c40.3-6.7,81.3-10.4,122.1-12.7l4.3-.2c10.3-.6,20.6-.8,30.8-.9"/>
  <path class="st6" d="M1770.6,1172.5h2.7c71.5.2,137.2,18.7,202.5,47l3.6,1.6,3.3,1.5,2.9,1.3,2.3,1.2,1.1,2.3c-4.8.9-9.5,1.4-14.4,1.6-1.6,0-3,.2-4.6.2h-2.4c-45.4,2.4-89.7,10.5-133.5,22.7l-3.7,1.1c-88.2,25.2-184.5,70.4-252.4,132.6l-3.1,2.8c-11.7,10.7-23.6,21.6-33.6,34l-1.4,1.7c-14,16.9-26.4,34.5-36.4,53.9l-1.2,2.3c-12.7,25.2-18.1,52.1-16.6,80.2,2,22,9.5,42.5,21.1,61.2,6,8.4,13.6,14.1,22.8,18.6,11.7,5.3,24.7,7,37.4,5.9,9-1.4,17.5-3.3,25.7-7.8l2.9-1.7c8.4-5,15.6-10.9,20.6-19.5,2.1-3.9,4-7.8,5.9-11.7,1.2-2.5,2.6-4.9,4-7.1.8,15.3-2,29.8-8.9,43.4-6.1,11.1-13,19-23.6,25.8-14.9,8.7-30.8,13.4-48.1,13.6-20.6-.2-39.5-6-57.4-16.2-17-10.6-30.2-23.8-40.1-41.1-12.4-23.3-14.7-47.5-14.7-73.5v-2.4c0-50.3,12.5-99.1,37.6-142.9,6.3-10.5,13.6-20.1,21.1-29.7,1.4-1.8,2.6-3.4,4-5.2,11.9-15.5,26.7-29.5,42.2-41.4,1.9-1.6,3.6-3.1,5.5-4.7,61.7-50.2,138.8-78.3,215.9-93.8l2.7-.6c1.7-.3,3.3-.7,5.1-1,2-.4,3.8-.8,5.8-1.3l1.1-1.1c-83-1.7-156.2,24.8-229.4,61.2l-3.6,1.8c-43.7,21.9-84.9,49.1-122.6,80.2-2.6,2.2-5.2,4.2-7.8,6.3-4.7,3.7-9.2,7.7-13.6,11.8-2.3,2.1-4.6,4.1-7,6.2-5.9,5.1-11.3,10.8-16.7,16.3v-3.3c1.5-2.4,3.1-4.7,4.8-7l1.6-2.1c9.2-12.5,19.1-24.6,29-36.5,2.3-2.6,4.4-5.3,6.6-8,4.6-5.7,9.3-11.1,14.6-16.1,2.2-2.2,4.1-4.3,6.1-6.7,4.7-5.5,9.8-10.6,14.9-15.7s3.2-3.2,4.8-4.8c5.2-5.2,10.5-10.3,16.1-15.1,2.7-2.3,5.4-4.9,8-7.3,7.5-7,15.8-13.1,24-19.3,2.7-2.1,5.4-4.1,8-6.3,7.1-5.6,14.5-10.6,22-15.6,1.4-1,2.7-1.9,4.2-2.8,30.4-20.3,63.8-36,98.3-48.4l2.4-.9c41.9-15.3,87.5-21.6,132-21.5"/>
  <path class="st4" d="M1443.4,1395.5l1.1,2.3c-.8,1.9-1.9,4-3.2,6.4l-1.1,2c-.8,1.4-1.5,2.7-2.3,4.1-1.6,2.8-3.1,5.8-4.7,8.6l-2.3,4.3c-4.2,7.8-8.3,15.6-12,23.6l-1.3,2.6c-19.9,42.7-33.2,89.3-29.1,136.8,2.7,27.8,11.9,54.7,28.2,77.6,2.5,3.4,5.1,6.8,7.7,10l1.6,2c16.5,20.7,38.2,35.9,62.7,45.8,24.9,9.6,50.6,12.6,77.2,9.6,21.9-3.7,44.4-15.1,61.6-29.2l3-2.6,2.5-2.2c9.7-8.9,15.7-20.6,19.8-33,1.6-5.7,2.5-11.4,3.3-17.2h1.1c3.8,20.8,2.3,43.7-4.4,63.6-5.9,16.5-15.7,29.9-28.6,41.4-15.9,12.7-35.2,21.6-54.9,26.3l-2.4.6c-33,7.3-70.9,3.9-102.9-5.7-27.6-8.7-50.7-21.2-70.6-42.8-23-26-39.1-57.4-46-91.4-.7-3.6-1.3-7.3-1.9-11l-.4-2.4c-3.7-24.7-2.9-50.8.4-75.5l.3-2.4c.6-4.4,1.3-8.8,1.9-13.1l-1.8,1c-91.9,53.5-195.3,78-371.5,89.5-83.8,0-170.6-9.9-249.2-40.3v-1.1c15.3.6,30.4,1.5,45.7,2.5,4.4.3,8.8.6,13.3.8l2.5.2c22.9,1.4,45.9,1.3,68.8,1.3h3.2c35.3,0,70.5-.6,105.7-3.6l3.4-.3c30.6-2.7,61-6.6,91.3-11.9l2.7-.5c39-7,77.3-16.2,115-28.4,3.4-1.2,7-2.3,10.5-3.3,87.5-28.2,171.7-74,241.9-133.5l2-1.7c1.3-1.1,2.5-2.2,3.8-3.2,2.6-2.3,5.3-4.3,8.1-6.3"/>
  <path class="st3" d="M208.6,388.9c.8,2.4,1.2,4.1.8,6.7l-.7,2.3-.8,2.7-.9,2.9c-.7,2.2-1.3,4.3-2,6.5l-1.1,3.4c-15.8,51.8-27.6,104.4-36.1,157.8-.4,2.5-.8,5.1-1.3,7.6-2.1,12.2-3.5,24.5-4.8,36.8,0,.9-.2,1.9-.3,2.8-7.7,77.3-7.8,155.6,4.8,232.3l.4,2.3c15.9,95.9,49.4,189.1,128.8,317.3.6.8,1.1,1.6,1.7,2.3,11.9,16.8,24.4,33.3,37.8,48.9,2.6,3,5.2,6.2,7.6,9.3,4.5,5.6,9.4,10.9,14.3,16.1,3,3.2,6.1,6.6,8.9,9.9,3.9,4.5,7.9,8.7,12.1,12.8l2.3,2.3c1.6,1.6,3,3,4.6,4.6,2.3,2.3,4.7,4.7,7,7l4.5,4.5,2.1,2.1c4.2,4.2,8.5,8.1,13,12,2.4,2.2,4.9,4.3,7.3,6.6,4.7,4.3,9.6,8.4,14.6,12.4,2.4,2.1,5,4,7.4,6.1,46.2,38.1,97.7,70.6,151.6,96.7,2,1,3.8,1.9,5.8,2.8,51.9,25.6,106.2,46.1,162.1,61.1l2.5.7c4.2,1.2,8.4,2.3,12.6,3.3l4.7,1.3,4.2,1.1c2.2.7,4,1.8,5.5,3.3-91.5-6.7-181.3-31.2-263.9-71.3l-2.7-1.3c-4.3-2.2-8.7-4.3-13-6.5-2.3-1.2-4.5-2.3-6.8-3.4-15.2-7.7-29.7-16.6-44.2-25.6-2.8-1.8-5.8-3.5-8.6-5.3-24.8-15.1-48.4-32.7-70.5-51.4l-1.9-1.6c-7.4-6.4-14.9-12.7-22.1-19.3-1.7-1.5-3.3-3-5.1-4.5-8.8-7.7-17.1-16.2-25.5-24.5-2.5-2.5-5.1-5.1-7.6-7.6-1.7-1.7-3.3-3.3-5-5l-2.3-2.3c-4.9-5-9.6-10.1-14.2-15.5-1.6-1.8-3.1-3.5-4.7-5.2-11.6-12.8-22-26.1-32.2-39.9-1.9-2.4-3.6-4.9-5.5-7.2-18.8-24.5-35.1-50.9-49.8-77.8-1.3-2.3-2.5-4.5-3.8-6.8-26.3-46.5-46-96.7-60.9-147.9l-1.2-4.1c-12.8-44.4-20.6-90-24.8-135.9-.3-3.1-.7-6.1-1.3-9.1-.6-2.6-.7-5-.7-7.6v-10.5c0-15.2.8-30.3,1.6-45.3v-2.3c1.3-22.8,2.7-45.3,6.1-67.9.4-2.3.7-4.8,1-7.1,3.9-28,9.5-55.5,16.1-83l.6-2.5c15.6-65.3,38.8-128.1,65.7-189.5,2.1-4.6,4-9.3,6-13.9"/>
  <path class="st3" d="M598.4,1188.4l3.3,1.1c1.9,2.9,2.9,6.2,4.2,9.3l1.2,2.6,1.1,2.5,1,2.3.4,2.1c-1.5,2.2-3.3,3.9-5.5,5-1.4.6-2.7,1.2-4.1,1.8l-2.3,1c-2.3,1-4.7,2-7,2.9-2.3,1-4.6,2-7,2.9-1.5.6-2.8,1.3-4.3,1.9-2.7,1.2-5.4,2.3-8,3.7-1.3.6-2.9.9-4.7,1l-2.7-1.2c-1.8-2.7-3-5.2-4.3-8.1l-1.1-2.3c-.9-2.1-1.7-4.1-2.4-6.3.2-1.6.6-3.1,1.1-4.5,2.6-1.6,5.4-2.8,8.2-4l2.5-1.1c2.6-1.2,5.3-2.3,8-3.4,1.8-.8,3.6-1.6,5.4-2.3,8.4-3.7,14.1-6,17-7"/>
  <path class="st5" d="M693,1150.5c1.1,2.8,2.3,5.8,3.3,8.6l1,2.4.9,2.3.9,2.2c.4,1.4.6,3.6.6,6.6-5.3,2.3-10.6,4.4-15.8,6.6-1.8.8-3.6,1.5-5.4,2.3-2.5,1.1-5.2,2.2-7.7,3.2l-2.4,1c-4.4,1.8-8.4,3-13.2,3.6-1.4-2.8-2.6-5.8-4-8.6l-1.2-2.4-1.1-2.3-1-2.2c-.4-1.4-.5-2.9-.4-4.5l.9-2.1c1.2-.8,2.5-1.5,4.1-2.2l2.5-1.1,2.8-1.1,5.8-2.3,2.9-1.2c2.8-1.2,5.6-2.3,8.4-3.5l2.5-1.1c1.7-.7,3.2-1.4,4.8-2.1,3.8-1.6,6.3-2.3,10.5-2.3M785.4,1115.9c1.2,2.8,2.3,5.8,3.4,8.6l1,2.4.9,2.3.9,2.2c.3,1.4.5,2.9.4,4.5l-1,2.2c-1.6.9-3.4,1.7-5.4,2.4l-3.4,1.3-3.6,1.3-3.7,1.4c-2.4.9-4.8,1.8-7.2,2.5-2.8,1-5.7,2.1-8.5,3-6.7,2.5-10.9,3.7-12.6,3.7-1.2-3-2.3-6.2-3.4-9.2l-1-2.6-.9-2.5-.9-2.3c-.3-1.5-.5-3-.6-4.5l1.2-2.2c2.7-1.4,5.6-2.5,8.4-3.6l2.5-1c1.8-.7,3.6-1.3,5.4-2,2.7-1,5.5-2,8.2-3,1.8-.7,3.5-1.3,5.3-2l2.4-.9c4.2-1.5,7.6-2.4,12.1-2.1"/>
  <path class="st1" d="M973.6,1055.8c3.9,9.9,5.7,17.3,5.6,22.2-10.3,3.3-20.6,6.4-30.9,9.3l-3.2.9-3,.8-2.7.8c-1.6.3-3.5.5-5.7.5-1-2.6-1.9-5.3-2.7-8l-.8-2.3c-1.5-4.2-2.2-7.6-2-12,24.6-8.4,39.8-12.5,45.6-12.2"/>
  <path class="st1" d="M876.7,1083.7l3.3,2.3c.6,1.3,1.1,2.8,1.6,4.4l.7,2.5.7,2.6.8,2.7c.6,2.3,1.2,4.4,1.9,6.7-3,3-6.6,3.8-10.6,5.1l-2.5.8c-1.8.6-3.5,1.2-5.2,1.7-2.6.9-5.3,1.8-8,2.6-1.7.6-3.4,1.1-5.1,1.7l-2.4.8c-4.1,1.3-7.6,2.2-11.9,1.8-.7-1.5-1.4-2.8-2.1-4.3l-1.2-2.4c-1.9-4.7-3.2-9.6-4.6-14.4,5.5-1.9,10.9-3.7,16.4-5.7,1.9-.7,3.7-1.3,5.6-2,2.6-.9,5.3-1.9,8-2.7l2.4-.9c5.7-2,9.8-3,12.1-3.2"/>
  <path class="st1" d="M1070.4,1031.3c.8,2.8,1.5,5.8,2.3,8.6l.7,2.4c1,3.9,1.6,7.1,1.6,11.2-6.3,1.7-12.5,3.3-18.8,4.9-2.2.6-4.3,1.1-6.5,1.7-3,.8-6.2,1.6-9.2,2.3l-2.9.8-2.7.7-2.3.6h-2.1c-1.2-1-2.3-2.1-3.3-3.3-1-1.2-1.4-2.7-1.3-4.5l-.6-2.5-.6-2.6-.6-2.6c-.5-2.2-1-4.4-1.4-6.6,3.8-2.5,7.3-3.4,11.7-4.4l2.4-.6c1.8-.4,3.4-.8,5.2-1.2,2.6-.6,5.3-1.3,7.9-1.9,1.7-.4,3.4-.8,5.1-1.2l2.3-.6c4.5-1,8.5-1.5,13.1-1.3"/>
  <path class="st1" d="M1167.3,1010.2c2.2,7.4,2.8,14.6,3.3,22.2-15,4.4-30.3,7.1-45.6,10-2-5.6-3.7-11-4.7-16.7-.2-1.1-.4-2.1-.5-3.1l-.4-2.3c7.6-2.6,15.2-4.6,23-6.3l3.4-.7c10.1-2.2,17.2-3.2,21.4-3"/>
  <path class="st1" d="M1265.3,993.4c.4,2.1.8,4,1.1,6.1l.6,3.4c.4,3.1.5,6,.5,9.2v4.8c-6,1-11.8,2-17.8,2.9-2.1.3-4,.7-6.1,1-2.9.5-5.8,1-8.7,1.4l-2.7.5c-4.2.7-7.3,1-11.5-.2-.6-2.3-1.1-4.5-1.7-6.9l-1-3.8c-.7-3.6-.9-6.9-.7-10.5,5-1.8,9.7-2.8,15-3.6l2.3-.4c1.7-.3,3.2-.5,4.8-.8,2.4-.4,4.9-.8,7.3-1.2,8.7-1.4,14.9-2,18.4-1.9"/>
  <path class="st1" d="M1337.7,983.5l2.3,2.3c1.3,7,1.3,14,1.1,21.1-7.9,1.5-15.4,2.4-23.4,2.3-.4-2.6-.8-5.3-1.1-8,0-.8-.2-1.5-.3-2.3-.6-4-1.1-7.9-.8-12l1.1-1.1c3.4-.6,7-1,10.5-1.3l3-.4,2.8-.3,2.6-.3h2.2Z"/>
  <path class="st3" d="M538.2,1215.1c1.5,0,3,.5,4.4,1.1s2.2,1.9,2.2,3.9l1.1,2.3,1.1,2.5,1.1,2.4c.9,2.2,1.7,4.4,2.4,6.6l-1.1,3.3c-1.5.5-3,.9-4.4,1.1-3.2-3.8-5-8-6.9-12.5l-.9-2.2c-.8-1.8-1.5-3.5-2.3-5.3.9-1.2,2-2.3,3.3-3.3"/>
  <path class="st1" d="M1348.8,982.4h5.6c1.4,7.8,2.5,15.4,2.3,23.4h-6.7c-.4-2.4-.8-4.9-1.1-7.3l-.6-4.1c-.4-3.6-.7-7-.5-10.8l1.1-1.1h-.1Z"/>
  <path class="st2" d="M1257.5,1317.5l1.1,2.3c-1.2,1.4-2.7,2.9-4.5,4.4s-3.6,1.9-5.6,1.1l1.1-3.3c2.4-1.8,5.1-3,7.8-4.4"/>
  <path class="st0" d="M1300.9,1291.9l2.3,1.1-5.6,5.6-3.3-2.3,6.7-4.5h0Z"/>
</svg>