<?xml version="1.0" encoding="UTF-8"?>
<svg id="Layer_1" xmlns="http://www.w3.org/2000/svg" version="1.1" viewBox="0 0 2048 2007">
  <!-- Generator: Adobe Illustrator 29.7.1, SVG Export Plug-In . SVG Version: 2.1.1 Build 8)  -->
  <defs>
    <style>
      .st0 {
        fill: #6085ae;
      }

      .st1 {
        fill: #0188dd;
        font-family: Poppins-Light, Poppins;
        font-size: 67.1px;
        font-weight: 300;
        letter-spacing: .1em;
      }

      .st1, .st2 {
        isolation: isolate;
      }

      .st3 {
        fill: #244a86;
      }

      .st4 {
        fill: #14587b;
      }

      .st5 {
        fill: #5782ad;
      }

      .st6 {
        fill: #fff;
      }

      .st7 {
        fill: #fbc62a;
      }

      .st8 {
        fill: #f9ad2d;
      }

      .st9 {
        fill: #1896c7;
      }

      .st10 {
        fill: #2067a1;
      }

      .st11 {
        fill: #1c326c;
      }

      .st12 {
        fill: #f48048;
      }

      .st13 {
        fill: #f0fbfe;
      }

      .st14 {
        fill: #f5832d;
      }

      .st15 {
        fill: #0da549;
      }

      .st16 {
        fill: #1c7391;
      }

      .st17 {
        fill: #11316a;
      }

      .st18 {
        fill: #f5832e;
      }

      .st19 {
        fill: #23538e;
      }

      .st20 {
        fill: #f9b325;
      }

      .st21 {
        fill: #f6912c;
      }

      .st22 {
        fill: #fbd149;
      }

      .st23 {
        fill: #f5952a;
      }

      .st24 {
        fill: #225e99;
      }
    </style>
  </defs>
  <rect class="st6" x="35.8" y="15.3" width="1976.4" height="1976.4" rx="120" ry="120"/>
  <g>
    <path class="st3" d="M1554.9,680.5h2.4c105.3,1,176.9,11,214.7,29.9-.7,5-2.6,9.1-4.9,13.4l-1.2,2.3c-1.3,2.4-2.4,5-3.7,7.4l-1.3,2.5c-6.7,13.4-13.8,26.7-21.4,39.6-1.8,3-3.5,6-5.3,9.1-9.6,16.8-19.6,33.1-30.3,49.2-1.6,2.3-3.2,4.8-4.8,7.1-7.6,11.6-15.6,23-23.7,34.3l-1.9,2.6c-12.5,17.5-25.6,34.4-39.3,51-2.6,3.2-5.2,6.3-7.7,9.6-5.2,6.4-10.5,12.7-16,18.9-1.7,1.9-3.3,3.9-5,5.8-7.9,9.4-16.3,18.4-24.6,27.3-1.9,1.9-3.6,3.9-5.4,5.8-9.3,10.1-18.9,19.9-28.6,29.5l-2.1,2.1c-9,9.1-15.8,15.6-20.5,19.5-3.4,2.9-6.7,6.1-10,9.3-5.6,5.4-11.4,10.4-17.5,15.3-3.8,3.1-7.6,6.4-11.3,9.6-7.1,6.2-14.4,12.1-21.9,17.9-2.2,1.8-4.6,3.5-6.8,5.4-16.5,13-33.4,25.2-50.8,37-1.9,1.4-3.9,2.6-5.8,4-21.6,14.7-44.2,28-67.1,40.6l-3.4,1.9c-86.2,47.6-179.9,79.1-381.6,108h-2.4c-10.8.8-21.5,1-32.3.9,3.9-2.6,7.8-3.6,12.2-4.9l5.6-1.6,2.9-.9c20.7-5.9,41.2-12.4,61.6-19.4,4.2-1.5,8.3-2.8,12.5-4.2,31.3-10.1,62-22,92.4-34.6l3.5-1.5c42.4-17.4,84.4-36.2,124.7-58.1,2.7-1.5,5.4-2.9,8.1-4.4,15.3-8.2,30.2-16.9,45-25.8,3.4-2,6.8-4.1,10.2-6.1,15.5-9.3,30.5-19.2,45.4-29.3l2.5-1.8c24.1-16.3,47.2-33.6,69.7-52,1.8-1.5,3.5-2.8,5.3-4.3,11.8-9.5,23.3-19.4,34.5-29.8,2.4-2.2,5-4.5,7.5-6.7,11.2-9.7,21.8-20.1,32.2-30.5l2.6-2.6c4.6-4.6,9-9.3,13.1-14.1,3.4-3.9,7-7.6,10.6-11.4,5.7-6.1,11.3-12.2,16.6-18.8,2.9-3.6,5.9-7.1,9-10.5,5.9-6.9,11.7-13.9,17.2-21.2,1.3-1.7,2.5-3.2,3.8-4.9,9.8-12.7,19.3-25.5,28.1-38.9,2-3.1,4.2-6.1,6.2-9.3,14.4-21.4,28-43.2,40.5-65.8,1.7-3,3.4-6,5.1-9.1l3.1-5.5,1.5-2.5c1.5-2.2,2.6-4.5,3.2-7-16.7-1.8-33.4-3.4-50.2-4.6l-3.7-.3c-4.2-.3-8.5-.5-12.7-.7l-2.8-.2c-22.7-1.2-45.5-1.2-68.2-1.2h-2.9c-69.4,0-138.5,4.3-207.4,13.5l-3.1.4c-74.2,9.9-147.8,24.1-220.6,41.7l-3.8.9c-33.6,8.2-67,17-100.1,26.6l-2.3.7c-19.1,5.6-38.2,11.2-57.2,17.1-7,2.1-14,4.4-21.1,6.4-16.6,5.1-32.9,10.5-49.3,16.1-3.7,1.3-7.4,2.4-11,3.7-25.2,8.5-50.3,17.2-75.2,26.3l-3.9,1.4c-15.2,5.6-30.3,11.2-45.4,16.9-3,1.2-6,2.3-9.1,3.5-36.6,13.9-73.1,28.1-109.2,43.2-8.1,3.4-16.2,6.7-24.3,10-13.5,5.6-27,11.2-40.5,16.9l-2.2,1-6.4,2.7-2,.9c-3.8,1.7-7.5,3.2-11.3,5l-2.4,1.1c-1.6.7-3.1,1.5-4.7,2.1-1.9.8-3.7,1.6-5.6,2.2l-2.2-1.1c17.1-10.3,34.6-20.3,52-29.9l3-1.7c29.1-16.1,58.5-31.6,88.3-46.3,9.4-4.7,18.9-9.4,28.3-14.2,18.1-9.2,36.2-18,54.7-26.4,4-1.9,8-3.7,12-5.6,9.4-4.5,18.9-8.7,28.4-12.9,6.5-2.8,13-5.7,19.3-8.8,8.3-3.9,16.7-7.5,25-11l2.3-1c33.3-14.1,66.9-27.7,100.6-40.8,2.1-.9,4.3-1.7,6.4-2.5,37.5-14.6,75.6-27.9,113.8-40.3,3.7-1.2,7.3-2.4,11-3.6,45.9-15.1,92.3-28.1,139.2-39.7l6.4-1.7c33.1-8.3,66.3-15.4,99.8-21.6l3.3-.6c32.7-6.1,65.6-11,98.6-14.9.9-.1,1.9-.2,2.8-.3,56.6-6.6,113.1-9.1,170-8.6"/>
    <path class="st15" d="M302.1,69.1c0,2.2-.5,4.2-1.4,5.8l-1.9,3-2.1,3.4-2.3,3.7c-1.7,2.6-3.3,5.3-4.9,7.9l-1.3,2c-4.7,7.5-9.2,15.1-13.5,22.7l-1.2,2c-2.6,4.6-5.3,9.1-8,13.6l-1.9,3.3c-3.8,6.6-7.6,13.2-11.4,20l-1.6,2.8c-15.3,27.2-28,55.5-38.1,84.9-1.3,5-2.7,9.8-4.3,14.7-5.1,15.9-9.4,31.9-13.3,48.2-1.1,4.2-2.1,8.4-3.1,12.7-6.4,25.7-12.1,51.6-16.3,77.8l-.8,4.8c-.7,4-1.3,8-1.9,12-.4,2.5-.8,5.1-1.3,7.6-2,12.2-3.5,24.4-4.8,36.6,0,.9-.2,1.9-.3,2.8-7.7,76.9-7.8,154.8,4.8,231.1l.4,2.2c15.8,95.4,49.2,188.1,128.1,315.7.6.8,1.1,1.6,1.7,2.3,11.9,16.8,24.3,33.1,37.6,48.6,2.6,3,5.2,6.1,7.6,9.3,4.5,5.6,9.4,10.8,14.2,16,3,3.2,6,6.5,8.9,9.8,3.9,4.5,7.9,8.7,12.1,12.8l2.2,2.2c1.6,1.6,3,3,4.6,4.6,2.3,2.3,4.7,4.7,7,7l4.5,4.5,2,2c4.2,4.2,8.5,8.1,13,12,2.4,2.1,4.9,4.3,7.3,6.5,4.7,4.3,9.5,8.4,14.5,12.4,2.4,2,5,4,7.4,6,46,37.9,97.2,70.2,150.8,96.2,1.9,1,3.8,1.9,5.7,2.8,51.6,25.4,105.7,45.9,161.3,60.8l2.5.7c4.2,1.2,8.4,2.2,12.6,3.3l4.7,1.3,4.2,1.1c2.1.7,4,1.8,5.5,3.3-91.1-6.6-180.4-31.1-262.5-70.9l-2.7-1.3c-4.3-2.1-8.7-4.3-13-6.4-2.2-1.2-4.5-2.2-6.7-3.4-15.1-7.7-29.5-16.6-43.9-25.4-2.8-1.8-5.7-3.5-8.6-5.3-24.6-15-48.1-32.5-70.1-51.1l-1.9-1.6c-7.4-6.3-14.8-12.7-22-19.2-1.7-1.5-3.3-3-5.1-4.5-8.8-7.7-17-16.1-25.3-24.4-2.5-2.5-5.1-5.1-7.6-7.6-1.7-1.7-3.3-3.3-5-5l-2.2-2.2c-4.9-5-9.5-10-14.1-15.4-1.6-1.8-3.1-3.5-4.7-5.2-11.5-12.8-21.9-26-32-39.7-1.9-2.4-3.6-4.9-5.5-7.2-18.7-24.4-34.9-50.6-49.6-77.4-1.3-2.2-2.5-4.5-3.8-6.7-26.2-46.3-45.8-96.2-60.6-147.2l-1.2-4.1c-13.4-46.5-20.8-94.1-25.4-142.1-1.7,96.4,22.1,197.6,60.6,285.9,1.5,3.3,2.9,6.7,4.3,10,6.6,15.2,13.7,30.1,21.1,45l1.4,2.7c5.7,11.7,12.1,23.1,19,34.2,1.2,1.9,2.3,3.9,3.5,5.8,6.2,10.5,12.7,20.8,19.6,30.9,1.4,1.9,2.6,4,4,6,14.3,21.8,30.1,42.5,46.7,62.6,1.5,1.9,2.9,3.6,4.4,5.5,5.1,6.2,10.3,12.3,15.8,18.1,2,2.2,4.2,4.6,6.1,7,10.3,11.8,21.2,23,32.2,34.1l3.1,3.1c5.1,5.1,10.1,9.9,15.5,14.5,3.1,2.6,6,5.5,9,8.2,5.3,5,10.8,9.6,16.4,14.1,3,2.4,5.9,5,8.9,7.5,7.2,6.2,14.5,12.2,22.1,17.9,2.4,1.9,4.8,3.6,7.2,5.5,52.5,39.8,109.5,75.3,169.3,102.9,3.6,1.7,7.1,3.4,10.6,5.2l-3.3,1.1c-1.7-.3-3.6-.8-5.6-1.5l-3.4-1.1-3.7-1.2-3.9-1.3c-4-1.3-8.1-2.6-12.1-3.9l-3.6-1.2c-31.5-10.2-61.9-23.3-91.7-37.6l-3.2-1.6c-16-7.7-31.4-16.2-46.7-25l-2.8-1.7c-29.7-17.2-57.5-37.2-84.6-58.1l-2.3-1.9c-8.4-6.4-16.5-13.1-24.3-20.4-1.5-1.3-2.9-2.6-4.4-3.9-4.2-3.7-8.4-7.4-12.6-11.2-1.6-1.5-3.2-2.8-4.9-4.3-6.3-5.5-12.3-11.2-18.1-17.1-1.7-1.7-3.3-3.3-5.1-5.1-5.3-5.3-10.5-10.6-15.4-16.4-2.8-3.3-5.8-6.4-8.8-9.5-5.2-5.6-10.1-11.2-14.8-17-2.2-2.7-4.5-5.5-6.8-8.1-7.5-8.7-14.3-17.8-21.1-27.1l-1.8-2.3c-13.9-18.9-27.3-38.4-39.3-58.6l-2.5-4.2c-39.9-66.7-68.9-138.6-87.2-214l-.6-2.3c-13.3-55.2-19.9-111.8-19.7-168.6v-11.4c0-27.5,1.2-54.9,4.4-82.3l.3-2.3c11.1-94.2,37.7-189.4,81-273.9,1.9-3.6,3.5-7.2,5.2-10.8,5.7-12.5,12.4-24.5,19.1-36.5l1.7-2.9c11.3-20.2,23-40,36-59.1,1.3-1.9,2.6-3.9,3.9-5.8,12.3-18.3,25-36.2,38.5-53.7,1.7-2.2,3.4-4.4,5.1-6.6,5.6-7.3,11.3-14.3,17.1-21.2,2.7-3.1,5.4-6.4,7.9-9.6,5.5-6.7,11.3-13.1,17.1-19.3"/>
    <path class="st24" d="M802.3,595.2c57.7-.7,114.8,2,172.2,7.8l2.8.3c64.4,6.4,128.3,19.4,191,35.2l2.2.6c19.4,4.9,38.6,10.4,57.7,16.2l3.3,1c14.9,4.4,29.6,9.3,44.1,14.4v2.2l-3.5.9-2.3.6-20.7,5.5c-10.7,2.8-21.4,5.6-32.1,8.4-67.1,17.5-133.8,36.9-199.6,59.2-3.6,1.3-7.2,2.4-10.9,3.7-81.2,27.3-162,57.3-240.3,92.2l-3.6,1.6c-8.1,3.6-16.2,7.2-24.3,10.9-2.9,1.3-5.7,2.6-8.7,3.9-21.6,9.6-43,19.8-64.3,30.2-4.7,2.3-9.4,4.6-14.2,6.8-16.2,7.6-31.9,15.9-47.6,24.4-5.2,2.7-10.3,5.5-15.6,8.2-11.3,5.8-22.4,12.1-33.4,18.4-2.2,1.3-4.5,2.6-6.8,3.9-21.1,12.1-42,24.5-62.7,37.4l-2.8,1.8c-1.8,1.1-3.4,2.1-5.1,3.2-1.9,1.2-3.8,2.2-5.7,3.4h-2.2c1.8-4.4,4.8-7.5,8-10.9l3.7-3.9,1.9-2c1.8-1.9,3.4-3.7,5.1-5.6,9.2-10,18.6-19.6,28.1-29.1l2-2c8.8-8.8,15.4-15.1,20-19,3.1-2.6,6-5.4,9-8.1l3.8-3.5,1.9-1.8c7-6.5,14.1-12.8,21.6-18.8,2.4-1.9,4.9-4,7.3-6,29.3-24.2,60.4-46.2,92.4-66.5l2.1-1.4c20.9-13.3,42.4-25.7,64.3-37.4l3.6-1.9c82.2-43.5,170.6-77,282.2-98.9v-2.2l-2.2-.9c-2.4-1-4.9-2-7.3-3.1-91.5-41.1-206.9-42.6-448-48,20.3-11.1,50.4-12.9,73.1-16.7l3.7-.6c40.1-6.6,80.8-10.3,121.5-12.7l4.3-.2c10.2-.6,20.5-.8,30.7-.9"/>
    <path class="st10" d="M1767.3,1012.6h2.7c71.1.2,136.5,18.6,201.4,46.8l3.6,1.6,3.3,1.5,2.9,1.3,2.2,1.2,1.1,2.2c-4.8.9-9.4,1.4-14.3,1.6-1.6,0-3,.2-4.6.2h-2.4c-45.2,2.4-89.2,10.4-132.8,22.6l-3.7,1.1c-87.8,25-183.5,70-251.1,131.9l-3.1,2.8c-11.7,10.6-23.5,21.5-33.4,33.8l-1.4,1.7c-13.9,16.9-26.3,34.3-36.2,53.7l-1.2,2.2c-12.7,25-18,51.8-16.6,79.8,1.9,21.9,9.4,42.3,20.9,60.9,5.9,8.4,13.5,14,22.7,18.5,11.6,5.3,24.5,7,37.2,5.8,9-1.4,17.4-3.3,25.5-7.8l2.9-1.7c8.4-5,15.5-10.8,20.5-19.4,2-3.9,4-7.8,5.8-11.7,1.2-2.5,2.6-4.9,4-7.1.8,15.2-1.9,29.6-8.9,43.1-6,11-13,18.9-23.5,25.7-14.8,8.7-30.7,13.3-47.8,13.5-20.5-.2-39.3-5.9-57.1-16.1-16.9-10.5-30-23.7-39.9-40.9-12.4-23.2-14.6-47.2-14.6-73.1v-2.4c0-50.1,12.5-98.6,37.4-142.2,6.2-10.4,13.5-20,21-29.5,1.4-1.8,2.6-3.4,4-5.2,11.9-15.4,26.6-29.3,42-41.2,1.9-1.6,3.6-3.1,5.5-4.7,61.4-50,138.1-77.9,214.8-93.3l2.7-.6c1.7-.3,3.3-.7,5.1-1,1.9-.4,3.8-.8,5.7-1.3l1.1-1.1c-82.6-1.7-155.4,24.6-228.2,60.9l-3.6,1.8c-43.4,21.8-84.4,48.8-121.9,79.8-2.6,2.1-5.2,4.2-7.8,6.2-4.7,3.7-9.2,7.7-13.5,11.8-2.3,2-4.6,4.1-7,6.1-5.8,5.1-11.2,10.7-16.7,16.2v-3.3c1.5-2.4,3.1-4.7,4.8-7l1.6-2c9.2-12.5,19-24.4,28.8-36.3,2.2-2.6,4.4-5.3,6.5-8,4.6-5.6,9.3-11,14.5-16,2.1-2.1,4.1-4.3,6-6.6,4.7-5.5,9.7-10.5,14.8-15.6l4.8-4.8c5.2-5.2,10.4-10.2,16-15,2.7-2.3,5.4-4.9,8-7.3,7.5-7,15.7-13.1,23.9-19.2,2.7-2,5.4-4.1,8-6.2,7.1-5.6,14.4-10.5,21.9-15.5,1.4-1,2.7-1.9,4.2-2.8,30.3-20.2,63.5-35.8,97.8-48.1l2.4-.9c41.7-15.2,87.1-21.5,131.3-21.4"/>
    <path class="st19" d="M1441.9,1234.4l1.1,2.2c-.8,1.9-1.9,4-3.2,6.3l-1.1,1.9c-.8,1.4-1.5,2.7-2.2,4.1-1.6,2.8-3.1,5.7-4.7,8.6l-2.3,4.3c-4.2,7.8-8.3,15.5-12,23.5l-1.3,2.6c-19.8,42.5-33,88.8-28.9,136.1,2.7,27.7,11.9,54.4,28.1,77.2,2.5,3.4,5.1,6.7,7.7,9.9l1.6,1.9c16.5,20.6,38,35.7,62.3,45.6,24.7,9.5,50.4,12.6,76.8,9.5,21.8-3.7,44.1-15,61.3-29l3-2.6,2.5-2.1c9.6-8.9,15.6-20.5,19.7-32.8,1.6-5.6,2.5-11.3,3.3-17.1h1.1c3.8,20.6,2.2,43.4-4.4,63.3-5.8,16.5-15.6,29.7-28.4,41.2-15.8,12.7-35.1,21.5-54.6,26.2l-2.4.6c-32.8,7.3-70.5,3.9-102.4-5.6-27.5-8.7-50.5-21.1-70.2-42.6-22.9-25.9-38.9-57.1-45.8-91-.7-3.6-1.3-7.3-1.9-10.9l-.4-2.4c-3.7-24.5-2.9-50.6.4-75.1l.3-2.4c.6-4.4,1.3-8.8,1.9-13.1l-1.8,1c-91.5,53.2-194.3,77.6-369.5,89-83.4,0-169.7-9.8-247.9-40.1v-1.1c15.2.6,30.3,1.5,45.5,2.5,4.4.3,8.8.6,13.2.8l2.5.2c22.8,1.4,45.7,1.3,68.5,1.3h3.2c35.2,0,70.1-.6,105.2-3.6l3.4-.3c30.5-2.7,60.7-6.5,90.8-11.9l2.7-.5c38.8-6.9,76.9-16.1,114.4-28.2,3.4-1.2,6.9-2.2,10.4-3.3,87.1-28.1,170.8-73.6,240.7-132.9l1.9-1.7c1.3-1.1,2.5-2.1,3.8-3.2,2.6-2.2,5.3-4.3,8.1-6.2"/>
    <path class="st20" d="M213.5,233.1c.8,2.4,1.2,4.1.8,6.6l-.7,2.3-.8,2.7-.9,2.9c-.7,2.1-1.3,4.3-1.9,6.4l-1.1,3.4c-15.7,51.5-27.5,103.8-35.9,157-.4,2.5-.8,5.1-1.3,7.6-2,12.2-3.5,24.4-4.8,36.6,0,.9-.2,1.9-.3,2.8-7.7,76.9-7.8,154.8,4.8,231.1l.4,2.2c15.8,95.4,49.2,188.1,128.1,315.7.6.8,1.1,1.6,1.7,2.3,11.9,16.8,24.3,33.1,37.6,48.6,2.6,3,5.2,6.1,7.6,9.3,4.5,5.6,9.4,10.8,14.2,16,3,3.2,6,6.5,8.9,9.8,3.9,4.5,7.9,8.7,12.1,12.8l2.2,2.2c1.6,1.6,3,3,4.6,4.6,2.3,2.3,4.7,4.7,7,7l4.5,4.5,2,2c4.2,4.2,8.5,8.1,13,12,2.4,2.1,4.9,4.3,7.3,6.5,4.7,4.3,9.5,8.4,14.5,12.4,2.4,2,5,4,7.4,6,46,37.9,97.2,70.2,150.8,96.2,1.9,1,3.8,1.9,5.7,2.8,51.6,25.4,105.7,45.9,161.3,60.8l2.5.7c4.2,1.2,8.4,2.2,12.6,3.3l4.7,1.3,4.2,1.1c2.1.7,4,1.8,5.5,3.3-91.1-6.6-180.4-31.1-262.5-70.9l-2.7-1.3c-4.3-2.1-8.7-4.3-13-6.4-2.2-1.2-4.5-2.2-6.7-3.4-15.1-7.7-29.5-16.6-43.9-25.4-2.8-1.8-5.7-3.5-8.6-5.3-24.6-15-48.1-32.5-70.1-51.1l-1.9-1.6c-7.4-6.3-14.8-12.7-22-19.2-1.7-1.5-3.3-3-5.1-4.5-8.8-7.7-17-16.1-25.3-24.4-2.5-2.5-5.1-5.1-7.6-7.6-1.7-1.7-3.3-3.3-5-5l-2.2-2.2c-4.9-5-9.5-10-14.1-15.4-1.6-1.8-3.1-3.5-4.7-5.2-11.5-12.8-21.9-26-32-39.7-1.9-2.4-3.6-4.9-5.5-7.2-18.7-24.4-34.9-50.6-49.6-77.4-1.3-2.2-2.5-4.5-3.8-6.7-26.2-46.3-45.8-96.2-60.6-147.2l-1.2-4.1c-12.8-44.1-20.5-89.5-24.6-135.2-.3-3.1-.7-6.1-1.3-9.1-.6-2.6-.7-5-.7-7.6v-10.4c0-15.1.8-30.1,1.6-45.1v-2.2c1.3-22.7,2.7-45.1,6-67.6.4-2.3.7-4.8,1-7.1,3.9-27.9,9.4-55.2,16-82.6l.6-2.5c15.5-65,38.6-127.4,65.4-188.5,2-4.6,4-9.3,5.9-13.8"/>
    <path class="st7" d="M601.2,1028.3l3.3,1.1c1.9,2.9,2.9,6.1,4.2,9.3l1.2,2.6,1.1,2.5,1,2.3.4,2c-1.5,2.2-3.3,3.9-5.5,5-1.4.6-2.7,1.2-4.1,1.8l-2.2,1c-2.3,1-4.7,1.9-6.9,2.9-2.3,1-4.6,1.9-6.9,2.9-1.5.6-2.8,1.3-4.3,1.9-2.7,1.2-5.4,2.3-8,3.7-1.3.6-2.9.9-4.7,1l-2.7-1.2c-1.8-2.7-3-5.2-4.3-8.1l-1.1-2.2c-.9-2-1.7-4.1-2.4-6.2.2-1.6.6-3.1,1.1-4.5,2.6-1.6,5.4-2.8,8.2-4l2.5-1.1c2.6-1.2,5.3-2.2,8-3.4,1.8-.8,3.6-1.6,5.4-2.3,8.4-3.6,14-5.9,16.9-6.9"/>
    <path class="st8" d="M695.3,990.7c1.1,2.8,2.2,5.7,3.3,8.6l1,2.4.9,2.3.9,2.1c.4,1.4.6,3.6.6,6.5-5.3,2.2-10.5,4.4-15.7,6.5-1.8.8-3.6,1.5-5.4,2.2-2.5,1.1-5.2,2.1-7.7,3.2l-2.4,1c-4.4,1.8-8.4,3-13.1,3.6-1.4-2.8-2.6-5.7-4-8.6l-1.2-2.4-1.1-2.3-1-2.1c-.4-1.4-.5-2.9-.4-4.5l.9-2c1.2-.8,2.5-1.5,4.1-2.1l2.5-1.1,2.8-1.1,5.7-2.3,2.9-1.2c2.8-1.2,5.6-2.2,8.4-3.5l2.5-1.1c1.7-.7,3.2-1.4,4.8-2,3.8-1.6,6.2-2.3,10.4-2.3M787.3,956.3c1.2,2.8,2.2,5.7,3.4,8.6l1,2.4.9,2.3.9,2.1c.3,1.4.5,2.9.4,4.5l-1,2.1c-1.6.9-3.3,1.7-5.4,2.4l-3.4,1.3-3.6,1.3-3.7,1.4c-2.4.9-4.8,1.8-7.2,2.5-2.8,1-5.6,2-8.5,3-6.7,2.5-10.9,3.7-12.6,3.7-1.2-3-2.2-6.1-3.4-9.2l-1-2.6-.9-2.5-.9-2.3c-.3-1.5-.5-3-.6-4.5l1.2-2.1c2.7-1.4,5.6-2.5,8.4-3.6l2.5-1c1.8-.7,3.6-1.3,5.4-1.9,2.7-1,5.5-1.9,8.2-3,1.8-.7,3.5-1.3,5.3-1.9l2.4-.9c4.2-1.5,7.6-2.4,12.1-2"/>
    <path class="st21" d="M974.5,896.5c3.8,9.9,5.7,17.2,5.6,22.1-10.2,3.3-20.5,6.3-30.8,9.3l-3.2.9-3,.8-2.7.8c-1.6.3-3.4.5-5.6.5-1-2.6-1.9-5.3-2.7-8l-.8-2.2c-1.5-4.2-2.1-7.6-1.9-12,24.5-8.4,39.6-12.4,45.4-12.2"/>
    <path class="st23" d="M878.1,924.2l3.3,2.2c.6,1.3,1.1,2.8,1.6,4.4l.7,2.5.7,2.6.8,2.7c.6,2.2,1.2,4.4,1.9,6.6-3,3-6.5,3.8-10.5,5.1l-2.5.8c-1.8.6-3.5,1.2-5.2,1.7-2.6.9-5.3,1.8-8,2.6-1.7.6-3.4,1.1-5.1,1.7l-2.4.8c-4.1,1.3-7.6,2.1-11.9,1.8-.7-1.5-1.4-2.8-2-4.3l-1.2-2.4c-1.9-4.7-3.2-9.5-4.6-14.3,5.5-1.9,10.8-3.7,16.3-5.6,1.9-.7,3.7-1.3,5.6-1.9,2.6-.9,5.3-1.9,8-2.7l2.4-.9c5.7-1.9,9.7-3,12.1-3.2"/>
    <path class="st21" d="M1070.8,872.1c.8,2.8,1.5,5.7,2.2,8.6l.7,2.4c1,3.9,1.6,7.1,1.6,11.1-6.2,1.7-12.5,3.3-18.7,4.9-2.1.6-4.3,1.1-6.4,1.7-3,.8-6.1,1.6-9.2,2.3l-2.9.8-2.7.7-2.3.6h-2c-1.2-1-2.3-2.1-3.3-3.3-1-1.2-1.4-2.7-1.3-4.5l-.6-2.5-.6-2.6-.6-2.6c-.5-2.1-1-4.4-1.4-6.5,3.8-2.5,7.3-3.4,11.7-4.4l2.4-.6c1.8-.4,3.4-.8,5.2-1.2,2.6-.6,5.3-1.3,7.9-1.9,1.7-.4,3.4-.8,5.1-1.2l2.3-.6c4.5-1,8.5-1.5,13.1-1.3"/>
    <path class="st18" d="M1167.2,851.1c2.1,7.4,2.8,14.5,3.3,22.1-14.9,4.4-30.1,7.1-45.4,9.9-1.9-5.6-3.7-10.9-4.7-16.7-.2-1.1-.4-2-.5-3.1l-.4-2.3c7.6-2.6,15.1-4.6,22.9-6.2l3.4-.7c10-2.1,17.1-3.1,21.3-3"/>
    <path class="st14" d="M1264.6,834.4c.4,2,.8,4,1.1,6l.6,3.4c.4,3.1.5,5.9.5,9.2v4.8c-5.9,1-11.8,1.9-17.7,2.9-2,.3-4,.7-6,1-2.9.5-5.7,1-8.7,1.4l-2.7.5c-4.2.7-7.3,1-11.4-.2-.6-2.2-1.1-4.5-1.7-6.8l-1-3.8c-.7-3.6-.9-6.8-.7-10.4,5-1.8,9.6-2.8,14.9-3.6l2.3-.4c1.7-.3,3.2-.5,4.8-.8,2.4-.4,4.9-.8,7.3-1.2,8.7-1.4,14.8-2,18.3-1.9"/>
    <path class="st18" d="M1336.7,824.5l2.2,2.2c1.3,7,1.3,13.9,1.1,21-7.9,1.5-15.3,2.4-23.3,2.2-.4-2.6-.8-5.3-1.1-8,0-.8-.2-1.5-.3-2.2-.6-4-1.1-7.9-.8-12l1.1-1.1c3.4-.6,6.9-1,10.4-1.3l3-.4,2.8-.3,2.6-.3h2.1Z"/>
    <path class="st22" d="M541.3,1054.9c1.5.1,3,.5,4.4,1.1,1.4.6,2.1,1.9,2.1,3.9l1.1,2.3,1.1,2.5,1.1,2.4c.9,2.1,1.7,4.4,2.4,6.5l-1.1,3.3c-1.5.5-3,.9-4.4,1.1-3.2-3.8-5-8-6.8-12.5l-.9-2.1c-.8-1.8-1.5-3.5-2.2-5.3.9-1.2,2-2.3,3.3-3.3"/>
    <path class="st12" d="M1347.7,823.4h5.6c1.4,7.8,2.5,15.3,2.2,23.3h-6.6c-.4-2.4-.8-4.9-1.1-7.3l-.6-4.1c-.4-3.6-.7-7-.5-10.7l1.1-1.1h0Z"/>
    <path class="st5" d="M1256.9,1156.8l1.1,2.2c-1.2,1.4-2.7,2.9-4.5,4.4-1.8,1.5-3.6,1.9-5.6,1.1l1.1-3.3c2.4-1.8,5.1-3,7.8-4.4"/>
    <path class="st0" d="M1300.1,1131.3l2.2,1.1-5.6,5.6-3.3-2.2,6.6-4.5h0Z"/>
  </g>
  <g class="st2">
    <text class="st1" transform="translate(312.6 1961.5)"><tspan x="0" y="0">CONSULTATIONS MARINE SERVICES L.L.C</tspan></text>
  </g>
  <g>
    <path class="st17" d="M1368.7,1850.3l-10.6.4h-9c-30.8-1.2-54.4-24-54.4-54.7l-.3-95.9c0-33.8,19-52.2,53.5-55.9h11.7l7,.4c30.5.4,54.1,23.5,54.1,54.1l-.3,100.1c0,30.7-24,49.9-51.7,51.7v-.3Z"/>
    <path class="st4" d="M1398.6,1747.9c0,25.5-16.5,43.4-40.9,43.4s-41.6-18.1-41.6-43.8,17.3-43.8,41.6-43.8,40.9,18.4,40.9,44h0Z"/>
    <path class="st6" d="M1356.3,1683.1c-33.3,0-59.6,28.8-59.6,64.4s25.1,64.2,60.7,64.2,60.7-31,60.7-64-24.8-64.6-61.8-64.6h0ZM1357.4,1809.1c-34.2,0-58.2-27.4-58.2-61.6s25.2-61.8,57.1-61.8,59.3,27.8,59.3,62.1-24,61.4-58.2,61.4Z"/>
    <path class="st6" d="M1356.7,1701.8c-22.9,0-42.3,21.1-42.3,45.7s18.4,45.7,43,45.7,43.1-22.5,43.1-45.1-18.3-46.1-43.8-46.1h0ZM1357.8,1790c-23.6,0-40.5-19.5-40.5-43s17-41.7,39-41.7,40.6,20.9,40.6,44.3-15.3,40.5-39.3,40.4h.1Z"/>
    <polyline class="st9" points="1355.3 1747.3 1397.6 1790 1373.5 1757.8"/>
    <polyline class="st13" points="1373.5 1757.8 1443.4 1747.3 1355.3 1747.3"/>
    <polyline class="st13" points="1355.3 1747.3 1397.6 1790 1366.2 1766.7"/>
    <polyline class="st9" points="1366.2 1766.7 1355.1 1841.3 1355.3 1747.3"/>
    <path class="st6" d="M1445.6,1747.7"/>
    <polyline class="st9" points="1355.1 1747.3 1312.8 1704.8 1336.9 1737"/>
    <polyline class="st13" points="1336.9 1737 1267.1 1747.1 1355.1 1747.3"/>
    <polyline class="st13" points="1355.1 1747.3 1312.8 1704.8 1344 1728"/>
    <polyline class="st9" points="1344 1728 1355.3 1653.5 1355.1 1747.3"/>
    <polyline class="st13" points="1355.1 1747.3 1397.5 1704.9 1373.2 1737"/>
    <polyline class="st9" points="1373.2 1737 1443.3 1747.3 1355.1 1747.3"/>
    <polyline class="st9" points="1355.1 1747.3 1397.5 1704.9 1366.1 1728"/>
    <polyline class="st13" points="1366.1 1728 1355.2 1653.5 1355.1 1747.3"/>
    <polyline class="st13" points="1355.3 1747.3 1312.8 1789.9 1337.1 1757.7"/>
    <polyline class="st9" points="1337.1 1757.7 1267.1 1747.1 1355.3 1747.3"/>
    <polyline class="st9" points="1355.3 1747.3 1312.8 1789.9 1344.3 1766.7"/>
    <polyline class="st13" points="1344.3 1766.7 1355.2 1841.3 1355.3 1747.3"/>
    <path class="st16" d="M1385.1,1747.1c0-.4-.8-1.4-1.2-1.5h-1.2l-4.9-1.1v-5.7c-.8-2-2-3.8-3.3-5.6l2.6-4.4c.3-.3.8-.7.8-1v-1.2c0-.3-.8-1.1-1.1-1.2h-1.1c-.7,0-1.1.7-1.5,1.1h0c0,.1-4.2,2.5-4.2,2.5-.8-.5-2.2-1.6-2.6-1.8-1-.5-2.2-1.1-3.3-1.5h-5l-1.4-4.9c.1-.4.3-.8.1-1.2,0,0-1-1.1-1.1-1.1h-1.4c-.5,0-1.2,1.2-1.4,1.6h0v.4l-1.2,5h-5c-.1,0-.4.1-.5.3-1.2.5-2.5,1.2-3.7,1.9-.3,0-1,.7-1.5,1.1l-4.5-2.5c-.3-.3-.7-.8-1-1h-1c-.4,0-1.5.8-1.5,1.4v1.2c0,.5.7.8,1.1,1.1h0l2.5,4.1c-.4.5-1.2,1.5-1.4,1.8-.7,1.1-1.2,2.3-1.8,3.4,0,.1-.1.4-.3.5v5.7l-1.5.4h-.1l-2.7.5c-.1,0-.3-.1-.4-.1h-1.2c-.4,0-1.1,1.1-1.2,1.5v.5c0,.7,1.1,1.6,1.8,1.6h.5s.3,0,.4-.1l4.5,1.4h0v5c0,.1.1.4.3.5.4,1,1.1,2.2,1.5,3,.3.4,1.2,1.6,1.8,2.5l-2.5,4h0c-.4.3-1.1.7-1.2,1.2v1.1c0,.4,1,1.2,1.4,1.4h1.2c.3,0,.5-.5.8-1l4.5-2.6c.5.4,1.2,1,1.5,1.1,1.2.7,2.5,1.4,3.7,1.9.1,0,.4.1.5.3h5.2l1.2,4.8c0,.1,0,.3-.1.3v1.2c0,.1,1,1.1,1.2,1.1h1.2c.3,0,1.1-1,1.2-1.1.1-.7,0-1.1-.3-1.6l1.2-4.6h5.6c2-.8,4-2.2,5.9-3.4l4,2.5v.3c.3.3.8.8,1.1,1h1.2c.3,0,1.1-1,1.2-1.2v-1.4c0-.4-1-.8-1.2-1.1l-2.3-4.1c.4-.5,1-1.1,1.1-1.4.8-1.2,1.6-2.7,2.2-4.1v-5.2h0l5-1.5c.4,0,.7.3,1.1,0,.3,0,1.1-1,1.2-1.4v-.8h.4ZM1373.1,1749.6v4.1c0,.1-.1.4-.3.5-.3.4-1.5,2.9-2.3,4l-6.8-6.1c.1-.3.4-.7.5-1.1v-1.5h9.4-.5ZM1373.1,1745.3l-9.4-.3h0v-.8c-.1-.4-.3-1-.5-1.4l6.4-6.4c1.2,1.5,2.3,3.4,3,5.3v3.7h.5ZM1358.9,1729.9h2.9c1.8.7,3.3,1.8,4.9,2.9l-6.8,6.3c-.3,0-.5-.1-.8-.3h-1.4l.4-9.4h1.1l-.3.5ZM1348.9,1730.7h4.5v9.4h-1.1c-.3,0-.4.1-.7.3l-7-6.3c1.1-1,3.8-2.3,4.4-2.6v-.8ZM1338,1743v-1.8c0-.1.1-.4.3-.5.3-.5,1.6-3.3,2.6-4.2l6.7,5.6.3.3c-.5.5-.7,1.2-1,2v1.1l-9.3-.3v-2h.4ZM1346.9,1749.5v1.1c0,.3.4,1,.7,1.5l-6.7,6.3c-1-1.1-2.5-4-2.6-4.5v-4.5h9.4-.8ZM1351.1,1764.8h-2.9c-1.5-.7-2.7-1.6-4.1-2.5l6.5-6.5c.4.1.8.3,1.2.5h1.2v9.4h-2v-1ZM1361.3,1764.1h-4.2l.4-9.5h.7c.3,0,.7-.3,1-.4l7.2,6c-1.6,1.1-3.3,2.3-5.2,3.1v.8Z"/>
    <path class="st6" d="M1356.1,1743.2h.5c1,.3,2,1.6,2.5,2.5v2.5c-.3.8-1.5,2.2-2.5,2.5s-.4,0-.4,0h-2.3c-.7-.3-2.2-1.6-2.5-2.5s0-.4,0-.5v-2.2c.1-.7,1.5-2,2.2-2.3s.3,0,.4,0h2Z"/>
  </g>
  <rect class="st11" x="702.9" y="1645.9" width="43.4" height="202.5"/>
  <polygon class="st11" points="979.6 1647.4 1022.7 1647.4 1022.7 1803.8 1077.8 1803.8 1077.8 1845 980.4 1845 979.6 1647.4"/>
  <polygon class="st11" points="1689.7 1844.6 1732.5 1844.6 1732.5 1685.4 1774 1685.4 1774 1647.6 1649.2 1647.6 1649.2 1686.6 1688.8 1686.2 1689.7 1844.6"/>
  <path class="st11" d="M421.8,1646.8h-72.4v197.5h42.5l.3-69.4s83.1,9,83.1-59.3-53.5-68.9-53.5-68.9h0ZM416.8,1735.1c-2.5.5-23.9.3-23.9.3v-48.5s23-.1,25.9.3c2.9.5,18,6.4,17.3,23.9-.7,17.5-16.9,23.5-19.4,24h0Z"/>
</svg>